<?xml version="1.0" standalone="no"?>
<!DOCTYPE svg PUBLIC "-//W3C//DTD SVG 20010904//EN"
 "http://www.w3.org/TR/2001/REC-SVG-20010904/DTD/svg10.dtd">
<svg version="1.0" xmlns="http://www.w3.org/2000/svg"
 width="1024.000000pt" height="1024.000000pt" viewBox="0 0 1024.000000 1024.000000"
 preserveAspectRatio="xMidYMid meet">

<g transform="translate(0.000000,1024.000000) scale(0.100000,-0.100000)"
fill="#000000" stroke="none">
<path d="M1925 8900 c-326 -69 -587 -263 -720 -535 -68 -138 -87 -223 -89
-395 0 -80 2 -158 5 -175 38 -176 135 -356 246 -455 156 -139 293 -191 494
-187 115 2 116 2 203 45 148 74 271 208 318 349 63 184 23 394 -98 515 -71 72
-122 93 -224 93 -75 0 -91 -3 -132 -27 -90 -54 -158 -164 -158 -258 0 -99 37
-170 106 -205 97 -49 114 -73 69 -93 -105 -48 -266 42 -337 186 -102 207 1
495 215 600 137 68 9 64 2017 63 l1815 -2 79 -21 c151 -40 294 -166 345 -304
36 -94 45 -197 26 -279 -17 -77 -38 -115 -87 -161 -75 -72 -208 -114 -264 -84
-40 22 -30 47 31 75 92 44 135 115 135 223 0 160 -130 286 -295 286 -101 0
-168 -25 -231 -89 -91 -91 -129 -195 -128 -355 2 -279 186 -506 446 -550 363
-61 722 184 834 570 15 52 19 97 18 225 0 145 -3 168 -27 248 -105 340 -365
583 -736 685 l-96 27 -1845 2 c-1779 2 -1848 1 -1935 -17z"/>
<path d="M7965 8867 c-92 -31 -157 -86 -196 -166 -19 -37 -23 -63 -24 -136 0
-49 4 -106 8 -125 l8 -36 -698 -696 c-824 -822 -825 -822 -861 -813 -39 9
-682 19 -736 11 l-46 -7 0 -756 0 -755 578 6 577 6 140 -127 c77 -71 252 -239
389 -374 205 -203 248 -250 241 -265 -46 -111 -7 -248 97 -346 111 -104 310
-85 417 39 98 115 114 239 45 359 -64 114 -213 173 -349 140 -34 -8 -66 -11
-75 -6 -8 4 -100 94 -204 200 -143 146 -186 194 -175 201 8 5 349 9 771 9
l756 0 22 -46 c44 -89 177 -164 293 -164 109 0 225 74 277 177 22 42 25 61 25
148 0 85 -4 106 -23 143 -66 123 -150 169 -296 160 -118 -8 -199 -54 -252
-143 -13 -24 -33 -46 -42 -50 -9 -4 -406 -10 -882 -12 l-866 -6 -109 98 -110
98 -320 -7 c-176 -3 -407 -9 -513 -13 l-192 -6 2 259 3 259 1112 3 1113 2 19
-39 c48 -94 137 -153 249 -166 215 -24 370 136 349 360 -16 164 -147 277 -325
278 -55 1 -76 -4 -119 -27 -64 -35 -84 -56 -121 -126 l-30 -55 -1103 -3 c-607
-1 -1114 0 -1126 3 -23 5 -23 8 -23 164 0 147 1 159 19 164 10 2 297 1 637 -4
711 -10 742 -7 895 65 80 38 145 95 480 418 163 156 311 296 330 310 34 26 35
26 324 35 160 5 295 7 300 6 6 -2 26 -29 45 -59 60 -96 142 -139 265 -139 72
0 86 3 143 34 78 42 124 92 151 165 51 136 0 320 -108 391 -162 107 -373 49
-462 -126 l-29 -59 -325 0 c-250 0 -333 -3 -358 -13 -38 -16 -258 -218 -552
-507 -228 -224 -252 -244 -335 -280 -50 -22 -74 -24 -260 -30 -113 -3 -207 -5
-208 -4 -15 10 34 66 193 218 169 163 344 342 914 935 180 187 217 221 235
216 79 -25 126 -28 191 -10 36 9 83 30 104 46 107 77 159 252 115 383 -21 60
-100 147 -160 176 -58 27 -164 35 -219 17z"/>
<path d="M2462 8224 c-28 -20 -21 -35 65 -129 80 -88 101 -131 118 -246 8 -51
18 -96 23 -101 4 -4 529 -9 1166 -10 1110 -3 1158 -2 1171 15 7 10 16 42 20
70 17 132 36 170 153 307 56 66 62 84 33 100 -13 7 -459 10 -1373 10 -1210 0
-1356 -2 -1376 -16z"/>
<path d="M2648 7534 c-15 -8 -33 -24 -40 -37 -10 -17 -14 -377 -18 -1758 -4
-1448 -7 -1739 -19 -1752 -7 -9 -54 -38 -104 -64 -154 -82 -286 -211 -353
-348 -14 -31 -25 -57 -23 -59 2 -3 51 16 109 40 783 332 1742 644 2363 769
713 142 1027 124 1224 -73 266 -264 233 -723 -62 -868 -52 -25 -71 -29 -140
-28 -88 0 -120 12 -191 69 -89 73 -145 255 -96 315 30 36 55 18 62 -46 17
-151 161 -225 300 -154 51 26 115 93 142 148 78 163 -21 406 -203 491 -88 42
-179 55 -344 48 -203 -9 -660 -81 -875 -138 -206 -54 -888 -259 -1155 -346
-261 -85 -764 -279 -980 -378 -27 -12 -138 -62 -245 -110 -277 -124 -411 -189
-440 -213 l-25 -21 2100 0 c1774 -1 2110 2 2167 14 255 54 448 233 527 489 30
97 32 109 38 224 8 155 -17 289 -83 444 -84 198 -233 352 -433 453 -172 86
-389 135 -599 135 -93 0 -113 3 -133 19 l-24 19 -5 1329 c-4 1041 -8 1333 -18
1350 -32 56 45 53 -1227 53 -1013 -1 -1174 -3 -1197 -16z m349 -456 l28 -13 6
-1410 c7 -1344 6 -1412 -11 -1452 -19 -44 -44 -63 -83 -63 -32 0 -76 35 -92
73 -10 24 -11 320 -7 1431 3 842 8 1408 14 1419 19 38 84 44 145 15z m926 -7
c20 -19 20 -32 19 -1281 -1 -846 -5 -1267 -12 -1280 -16 -29 -43 -40 -99 -40
-94 0 -86 -123 -89 1305 -2 999 0 1255 10 1274 27 51 129 65 171 22z m429 9
c22 -17 26 -29 31 -107 4 -48 7 -585 8 -1193 l1 -1104 -36 -33 c-56 -52 -125
-43 -150 20 -11 26 -12 270 -10 1197 2 641 4 1171 4 1178 0 7 11 24 25 37 31
32 91 34 127 5z m466 -13 l23 -23 1 -1135 c1 -850 -1 -1139 -10 -1156 -7 -12
-26 -32 -43 -44 -26 -18 -37 -20 -67 -13 -20 5 -44 21 -56 37 l-21 29 0 1136
c0 895 3 1142 13 1159 25 46 118 51 160 10z m-1361 -1 l28 -24 7 -324 c7 -391
7 -2032 -1 -2210 -6 -121 -7 -129 -33 -154 -19 -19 -40 -28 -75 -31 -42 -4
-51 -2 -73 22 l-25 27 -1 1331 c-1 794 3 1339 8 1350 22 43 121 50 165 13z"/>
</g>
</svg>
