<?xml version="1.0" standalone="no"?>
<!DOCTYPE svg PUBLIC "-//W3C//DTD SVG 20010904//EN"
 "http://www.w3.org/TR/2001/REC-SVG-20010904/DTD/svg10.dtd">
<svg version="1.0" xmlns="http://www.w3.org/2000/svg"
 width="1024.000000pt" height="1024.000000pt" viewBox="0 0 1024.000000 1024.000000"
 preserveAspectRatio="xMidYMid meet">

<g transform="translate(0.000000,1024.000000) scale(0.100000,-0.100000)"
fill="#000000" stroke="none">
<path d="M4786 8709 c-971 -92 -1826 -539 -2444 -1278 -461 -550 -729 -1179
-814 -1906 -19 -164 -16 -615 5 -795 59 -490 158 -832 356 -1230 195 -391 521
-816 834 -1086 342 -297 707 -520 1072 -656 279 -105 639 -192 950 -230 167
-20 654 -17 820 6 372 51 868 192 1126 322 419 210 883 567 1168 899 305 356
538 766 687 1211 74 221 124 458 161 764 25 205 24 651 -1 845 -44 345 -121
640 -249 952 -257 626 -801 1265 -1389 1632 -461 288 -942 460 -1498 537 -138
19 -636 27 -784 13z m485 -279 c486 -26 880 -125 1304 -329 351 -169 636 -371
905 -641 539 -539 871 -1224 954 -1970 32 -292 30 -494 -10 -804 -74 -580
-326 -1179 -680 -1621 -82 -102 -244 -279 -250 -273 -1 2 -11 57 -22 123 -42
243 -114 397 -252 535 -176 176 -340 261 -840 432 -305 105 -391 153 -488 274
l-48 61 -50 -34 c-328 -223 -741 -274 -1089 -136 -86 34 -218 103 -279 146
l-29 20 -35 -44 c-56 -68 -101 -109 -172 -154 -78 -51 -133 -73 -405 -163
-115 -39 -259 -91 -319 -116 -320 -134 -527 -313 -620 -533 -38 -90 -72 -216
-86 -315 -7 -49 -16 -88 -20 -88 -5 0 -38 33 -75 73 -464 499 -752 1118 -852
1827 -25 182 -25 655 0 835 54 383 151 707 306 1022 132 268 277 493 451 698
80 94 305 318 405 403 530 448 1243 730 1955 771 74 5 140 9 145 9 6 1 94 -3
196 -8z"/>
<path d="M4982 7498 c-278 -35 -505 -143 -698 -333 -161 -159 -252 -305 -306
-491 -22 -74 -23 -96 -23 -369 0 -159 3 -303 7 -320 5 -26 2 -33 -25 -50 -18
-11 -43 -40 -57 -65 -22 -40 -25 -58 -28 -170 -3 -107 0 -139 21 -220 47 -183
123 -298 210 -322 l43 -11 27 -86 c15 -47 50 -130 77 -184 163 -326 396 -537
687 -623 167 -48 377 -31 541 46 141 66 310 209 419 355 84 112 200 351 219
451 5 26 12 33 45 43 87 26 156 123 215 301 25 77 28 99 28 230 1 132 -1 149
-22 187 -12 24 -35 52 -51 64 l-29 21 5 292 c5 265 3 300 -15 387 -43 205
-188 435 -380 602 -229 200 -591 305 -910 265z"/>
</g>
</svg>
