<?xml version="1.0" standalone="no"?>
<!DOCTYPE svg PUBLIC "-//W3C//DTD SVG 20010904//EN"
 "http://www.w3.org/TR/2001/REC-SVG-20010904/DTD/svg10.dtd">
<svg version="1.0" xmlns="http://www.w3.org/2000/svg"
 width="1024.000000pt" height="1024.000000pt" viewBox="0 0 1024.000000 1024.000000"
 preserveAspectRatio="xMidYMid meet">

<g transform="translate(0.000000,1024.000000) scale(0.100000,-0.100000)"
fill="#000000" stroke="none">
<path d="M0 5120 l0 -5120 5120 0 5120 0 0 5120 0 5120 -5120 0 -5120 0 0
-5120z m7713 3281 c39 -24 68 -62 72 -95 1 -11 5 -39 9 -61 6 -37 5 -36 -13
13 -33 93 -95 142 -181 142 -58 0 -80 -9 -130 -54 -20 -17 -15 -10 11 16 26
26 45 49 42 51 -2 3 9 3 24 1 24 -4 25 -3 8 5 -14 7 0 9 51 7 52 -2 81 -9 107
-25z m-1666 -93 c30 -6 50 -15 46 -21 -3 -6 -1 -7 6 -3 14 9 53 -2 46 -13 -2
-5 8 -13 23 -20 25 -11 26 -10 8 4 -28 22 -13 19 28 -6 40 -23 49 -36 14 -19
-21 10 -22 10 -5 -4 11 -8 24 -13 31 -10 17 6 128 -96 164 -152 17 -25 28 -52
25 -60 -3 -9 0 -14 8 -12 9 2 13 -5 12 -20 -2 -15 1 -21 9 -16 6 4 8 3 4 -4
-3 -6 3 -34 14 -62 11 -28 20 -61 19 -73 -1 -13 -5 -7 -10 16 -11 46 -71 170
-105 214 -28 37 -31 51 -6 32 15 -13 16 -12 3 3 -7 10 -17 16 -21 13 -4 -2
-18 7 -31 21 -62 66 -186 138 -294 170 -54 16 -125 18 -715 23 l-655 6 620 6
c661 6 682 5 762 -13z m-2564 5 c-7 -2 -19 -2 -25 0 -7 3 -2 5 12 5 14 0 19
-2 13 -5z m500 0 c-7 -2 -21 -2 -30 0 -10 3 -4 5 12 5 17 0 24 -2 18 -5z m60
0 c-7 -2 -21 -2 -30 0 -10 3 -4 5 12 5 17 0 24 -2 18 -5z m44 1 c-3 -3 -12 -4
-19 -1 -8 3 -5 6 6 6 11 1 17 -2 13 -5z m71 -1 c-10 -2 -28 -2 -40 0 -13 2 -5
4 17 4 22 1 32 -1 23 -4z m69 1 c-3 -3 -12 -4 -19 -1 -8 3 -5 6 6 6 11 1 17
-2 13 -5z m76 -1 c-13 -2 -33 -2 -45 0 -13 2 -3 4 22 4 25 0 35 -2 23 -4z
m180 0 c-29 -2 -77 -2 -105 0 -29 2 -6 3 52 3 58 0 81 -1 53 -3z m90 0 c-7 -2
-19 -2 -25 0 -7 3 -2 5 12 5 14 0 19 -2 13 -5z m80 0 c-7 -2 -19 -2 -25 0 -7
3 -2 5 12 5 14 0 19 -2 13 -5z m2768 -40 c-12 -20 -14 -14 -5 12 4 9 9 14 11
11 3 -2 0 -13 -6 -23z m-102 -250 c-52 -54 -99 -103 -105 -109 -6 -7 -66 -73
-134 -148 -68 -75 -125 -136 -128 -136 -3 0 6 12 19 28 14 15 94 101 177 192
190 208 256 276 261 273 3 -2 -38 -47 -90 -100z m-1861 -168 c-6 -7 -1760 -7
-1766 0 -3 3 394 5 883 5 489 0 886 -2 883 -5z m451 -20 c14 -7 37 -25 50 -39
13 -14 27 -24 30 -21 4 2 7 -4 7 -13 1 -9 4 -30 8 -47 7 -28 6 -28 -9 5 -35
77 -97 120 -172 120 -32 0 -43 3 -34 9 18 11 87 4 120 -14z m-2485 -23 c73
-40 148 -143 145 -199 0 -10 -5 -4 -10 13 -14 50 -70 126 -115 157 -23 16 -66
38 -95 48 -50 18 -51 19 -14 13 22 -3 62 -18 89 -32z m296 -13 c12 -23 20 -43
18 -45 -3 -2 -14 17 -26 41 -27 56 -20 60 8 4z m2250 16 c13 -14 21 -25 18
-25 -2 0 -15 11 -28 25 -13 14 -21 25 -18 25 2 0 15 -11 28 -25z m2300 -26
c46 -21 90 -56 90 -71 0 -5 -6 -6 -12 -2 -8 4 -10 3 -5 -2 5 -5 13 -9 19 -9 6
0 16 -16 23 -35 15 -43 3 -152 -22 -189 -35 -55 -99 -95 -141 -88 -25 4 -25 4
4 6 66 3 138 77 150 156 8 55 -9 106 -49 152 -89 101 -236 81 -300 -42 -9 -16
-16 -23 -17 -14 0 8 14 35 32 60 l32 44 -34 -30 -33 -30 18 27 c9 15 32 37 51
49 70 43 127 48 194 18z m-1763 -36 c-3 -10 -5 -4 -5 12 0 17 2 24 5 18 2 -7
2 -21 0 -30z m1493 -148 c-10 -12 -45 -15 -209 -15 -155 0 -202 -3 -225 -15
-25 -14 -27 -14 -16 0 10 12 9 15 -6 15 -18 1 -18 1 0 12 12 7 99 11 237 12
125 0 219 5 219 10 0 5 3 6 6 3 4 -4 1 -13 -6 -22z m-5142 -45 c0 -9 -3 -7 -8
5 -5 11 -8 29 -8 40 0 16 2 15 8 -5 4 -14 8 -32 8 -40z m4092 56 c0 -2 -8 -10
-17 -17 -16 -13 -17 -12 -4 4 13 16 21 21 21 13z m-3373 -78 c-2 -13 -4 -5 -4
17 -1 22 1 32 4 23 2 -10 2 -28 0 -40z m3768 -188 c-109 -109 -201 -197 -204
-195 -8 9 -41 -27 -34 -38 3 -5 2 -7 -4 -4 -12 8 -86 -66 -76 -76 4 -4 -13
-28 -37 -52 l-44 -45 -187 0 c-115 0 -190 4 -194 10 -4 7 58 10 178 10 l184 0
278 285 c157 162 284 284 291 281 7 -3 18 2 24 10 7 8 15 14 19 14 3 0 -84
-90 -194 -200z m-4418 93 c19 -24 39 -43 45 -43 6 0 5 7 -3 18 -13 15 -12 16
3 3 10 -7 15 -17 13 -22 -8 -12 37 -39 102 -59 32 -10 48 -19 36 -19 -44 -2
-132 40 -177 83 -40 39 -87 112 -86 133 1 4 8 -5 17 -22 8 -16 31 -49 50 -72z
m4114 74 c-10 -9 -11 -8 -5 6 3 10 9 15 12 12 3 -3 0 -11 -7 -18z m-1255 -99
c9 -9 20 -15 24 -13 4 3 16 -3 27 -13 10 -9 14 -14 9 -9 -17 13 -29 8 -16 -7
16 -21 74 -38 150 -46 l65 -7 -70 -1 c-80 -2 -134 18 -177 64 -27 29 -59 93
-57 116 0 7 7 -5 15 -26 8 -22 22 -48 30 -58z m1107 69 c-4 -9 -71 -82 -148
-163 -179 -188 -256 -267 -227 -234 12 14 22 30 22 35 0 4 -10 0 -22 -11 -13
-10 -5 0 16 23 21 23 44 41 50 40 6 -1 10 5 8 13 -2 8 0 12 4 7 9 -8 114 91
114 107 0 6 -26 -14 -57 -44 -32 -30 -18 -14 31 37 49 51 93 90 97 88 9 -6
109 100 109 116 0 7 3 10 6 6 3 -3 2 -12 -3 -20z m820 6 c-7 -2 -21 -2 -30 0
-10 3 -4 5 12 5 17 0 24 -2 18 -5z m65 0 c-10 -2 -26 -2 -35 0 -10 3 -2 5 17
5 19 0 27 -2 18 -5z m185 0 c-29 -2 -78 -2 -110 0 -32 2 -8 3 52 3 61 0 87 -1
58 -3z m-1093 -6 c0 -2 -15 -16 -32 -33 l-33 -29 29 33 c28 30 36 37 36 29z
m738 -17 c-7 -10 -14 -17 -17 -15 -4 4 18 35 25 35 2 0 -1 -9 -8 -20z m463
-27 c13 -16 12 -17 -3 -4 -10 7 -18 15 -18 17 0 8 8 3 21 -13z m-505 -21 c-18
-16 -18 -16 -6 6 6 13 14 21 18 18 3 -4 -2 -14 -12 -24z m573 -18 c14 -12 -19
-1 -35 12 -18 14 -18 14 6 3 14 -6 27 -13 29 -15z m-2718 -32 c16 -18 29 -40
29 -50 0 -11 -7 -6 -20 15 -10 17 -29 38 -42 45 -18 10 -191 14 -838 18 l-815
5 828 0 829 0 29 -33z m2110 15 c-10 -9 -11 -8 -5 6 3 10 9 15 12 12 3 -3 0
-11 -7 -18z m652 6 c-7 -2 -19 -2 -25 0 -7 3 -2 5 12 5 14 0 19 -2 13 -5z
m-2278 -33 c13 -6 15 -9 5 -9 -8 0 -22 4 -30 9 -18 12 -2 12 25 0z m68 -17
c-7 -2 -19 -2 -25 0 -7 3 -2 5 12 5 14 0 19 -2 13 -5z m1500 -8 c-3 -9 -8 -14
-10 -11 -3 3 -2 9 2 15 9 16 15 13 8 -4z m-53 -59 c0 -2 -8 -10 -17 -17 -16
-13 -17 -12 -4 4 13 16 21 21 21 13z m-130 -130 c0 -2 -8 -10 -17 -17 -16 -13
-17 -12 -4 4 13 16 21 21 21 13z m-1883 -38 c-3 -8 -6 -5 -6 6 -1 11 2 17 5
13 3 -3 4 -12 1 -19z m1843 -1 c0 -2 -19 -21 -42 -42 l-43 -40 40 43 c36 39
45 47 45 39z m-797 -92 c-3 -9 -8 -14 -10 -11 -3 3 -2 9 2 15 9 16 15 13 8 -4z
m-67 -45 c-29 -30 -44 -55 -40 -63 4 -6 4 -9 -1 -5 -4 4 -15 2 -24 -4 -10 -8
-9 -3 4 12 27 34 98 110 103 110 3 0 -16 -23 -42 -50z m734 -3 c0 -1 -26 -27
-57 -57 l-58 -55 55 58 c50 53 60 62 60 54z m-810 -89 c9 -5 -575 -13 -585 -8
-5 3 82 7 195 10 197 5 379 4 390 -2z m685 -28 c-3 -5 -12 -10 -18 -10 -7 0
-6 4 3 10 19 12 23 12 15 0z m645 -91 c49 -11 101 -46 127 -85 20 -31 27 -132
13 -185 -6 -22 -25 -54 -42 -72 l-30 -32 26 33 c97 124 22 300 -132 309 -74 5
-117 -17 -159 -81 -33 -48 -43 -54 -22 -13 6 12 25 37 42 55 38 39 25 43 -17
5 -27 -25 -27 -23 3 9 31 34 93 66 131 67 8 0 35 -4 60 -10z m-1035 -219 c517
0 785 -3 785 -10 0 -7 -270 -10 -790 -10 l-790 0 2 123 2 122 3 -112 4 -113
784 0z m52 -116 c-3 -3 -12 -4 -19 -1 -8 3 -5 6 6 6 11 1 17 -2 13 -5z m200 0
c-3 -3 -12 -4 -19 -1 -8 3 -5 6 6 6 11 1 17 -2 13 -5z m46 -1 c-7 -2 -19 -2
-25 0 -7 3 -2 5 12 5 14 0 19 -2 13 -5z m44 1 c-3 -3 -12 -4 -19 -1 -8 3 -5 6
6 6 11 1 17 -2 13 -5z m80 0 c-3 -3 -12 -4 -19 -1 -8 3 -5 6 6 6 11 1 17 -2
13 -5z m40 0 c-3 -3 -12 -4 -19 -1 -8 3 -5 6 6 6 11 1 17 -2 13 -5z m50 0 c-3
-3 -12 -4 -19 -1 -8 3 -5 6 6 6 11 1 17 -2 13 -5z m66 -1 c-7 -2 -21 -2 -30 0
-10 3 -4 5 12 5 17 0 24 -2 18 -5z m44 1 c-3 -3 -12 -4 -19 -1 -8 3 -5 6 6 6
11 1 17 -2 13 -5z m60 0 c-3 -3 -12 -4 -19 -1 -8 3 -5 6 6 6 11 1 17 -2 13 -5z
m76 -1 c-13 -2 -33 -2 -45 0 -13 2 -3 4 22 4 25 0 35 -2 23 -4z m-1546 -205
c-2 -35 -3 -7 -3 62 0 69 1 97 3 63 2 -35 2 -91 0 -125z m2443 -71 c19 -7 33
-16 32 -20 -5 -12 49 -67 60 -61 13 8 25 -37 26 -101 l0 -60 -8 46 c-16 90
-65 149 -143 170 -80 21 -157 -11 -202 -86 -14 -22 -25 -35 -25 -30 0 18 38
69 77 103 44 39 26 33 -32 -12 l-40 -30 25 28 c54 61 145 82 230 53z m-1440
-16 c19 -8 77 -54 127 -104 l93 -89 450 7 c419 6 510 3 481 -14 -6 -4 -217 -8
-470 -10 -339 -2 -466 1 -483 9 -13 7 -57 45 -98 86 -118 116 -78 109 -632
112 -315 2 -478 7 -478 13 0 17 966 7 1010 -10z m1515 -31 c27 -30 12 -34 -15
-5 -13 14 -19 25 -13 25 5 0 18 -9 28 -20z m-2518 -147 c-3 -10 -5 -2 -5 17 0
19 2 27 5 18 2 -10 2 -26 0 -35z m2180 15 c-3 -8 -6 -5 -6 6 -1 11 2 17 5 13
3 -3 4 -12 1 -19z m-2180 -85 c-3 -10 -5 -2 -5 17 0 19 2 27 5 18 2 -10 2 -26
0 -35z m289 -113 l284 0 255 -244 256 -245 49 31 c40 25 60 31 104 30 53 0
121 -25 112 -41 -3 -5 4 -17 16 -27 32 -29 58 -94 57 -144 l-1 -45 -8 50 c-20
139 -128 209 -247 160 -33 -14 -34 -14 -22 2 13 15 12 15 -6 5 -11 -5 -30 -20
-42 -31 l-21 -20 -120 112 c-66 62 -118 117 -116 124 2 7 -2 15 -8 19 -7 4 -8
3 -4 -4 22 -36 -23 2 -129 109 -103 103 -159 150 -180 149 -3 0 -122 0 -265 0
l-260 0 2 53 2 52 3 -47 4 -48 285 0z m-878 -427 c-15 -2 -42 -2 -60 0 -18 2
-6 4 27 4 33 0 48 -2 33 -4z m1974 -60 c21 -24 51 -84 45 -90 -3 -2 -8 5 -12
17 -4 12 -20 37 -37 56 -17 19 -26 34 -21 34 6 0 17 -8 25 -17z m-1552 -93
c247 -28 424 -127 543 -305 48 -71 28 -60 -23 14 -28 39 -76 92 -108 117 -137
108 -350 174 -569 174 -48 0 -85 5 -88 11 -7 11 75 7 245 -11z m360 -96 c0 -2
-9 0 -20 6 -11 6 -20 13 -20 16 0 2 9 0 20 -6 11 -6 20 -13 20 -16z m119 -92
c38 -37 73 -78 80 -92 10 -21 8 -20 -10 5 -29 38 -103 112 -149 148 -21 17
-26 23 -12 17 13 -7 54 -42 91 -78z m-536 -209 c-7 -2 -19 -2 -25 0 -7 3 -2 5
12 5 14 0 19 -2 13 -5z m75 -22 c20 -11 51 -34 67 -52 l30 -33 -39 33 c-22 19
-58 42 -80 52 -23 10 -35 19 -28 19 7 0 29 -9 50 -19z m-112 -471 c3 0 0 7 -7
17 -13 15 -12 15 8 2 15 -9 18 -16 11 -20 -14 -9 53 -39 102 -46 45 -6 64 -12
58 -18 -8 -9 -122 16 -158 35 -19 10 -48 33 -65 51 l-30 33 37 -27 c20 -15 40
-27 44 -27z m-1114 -791 c78 -17 165 -60 232 -114 49 -40 56 -49 42 -57 -16
-9 -64 -59 -118 -122 l-25 -29 -34 26 c-54 41 -144 78 -204 84 -190 20 -378
-125 -399 -307 -5 -35 -4 -40 4 -20 8 20 9 17 6 -20 -12 -145 64 -299 184
-372 94 -57 236 -63 334 -13 31 15 63 36 72 47 10 10 22 18 28 18 5 0 -5 -14
-24 -31 -19 -17 -28 -27 -20 -23 29 14 60 48 60 66 0 10 3 18 8 18 6 -1 133
-163 140 -179 1 -4 -7 -7 -17 -8 -14 -1 -36 20 -71 67 -49 66 -52 68 -71 52
-24 -21 -24 -27 3 -54 13 -13 15 -19 6 -16 -8 4 -21 2 -29 -3 -12 -7 -12 -10
-1 -18 10 -6 8 -10 -9 -14 -13 -4 -25 -4 -28 -2 -2 3 1 5 7 5 7 0 12 7 12 15
0 9 7 18 15 21 12 5 12 10 3 27 -11 21 -11 21 -19 2 -4 -11 -8 -15 -8 -8 -1 7
-8 10 -18 6 -12 -5 -14 -3 -8 7 5 9 4 11 -4 6 -6 -4 -9 -12 -5 -17 3 -5 -16
-19 -43 -32 -38 -17 -65 -22 -133 -21 -77 0 -93 4 -155 34 -39 19 -76 34 -83
33 -7 -1 -11 2 -8 5 8 7 -95 116 -112 118 -8 2 -11 0 -8 -3 3 -4 1 -12 -5 -20
-9 -10 -7 -13 7 -14 11 -1 22 -1 25 -1 4 1 15 -8 24 -18 11 -12 13 -20 7 -20
-7 0 -12 5 -12 10 0 6 -7 10 -15 10 -12 0 -13 -3 -3 -19 7 -11 18 -17 27 -14
10 4 9 0 -4 -10 -11 -8 -24 -13 -28 -10 -5 3 -1 -6 8 -21 10 -14 20 -26 24
-26 11 0 36 20 26 20 -5 0 -4 4 4 9 13 8 13 12 0 28 -13 17 -13 17 4 4 10 -8
16 -20 13 -27 -3 -7 -1 -16 4 -19 6 -4 10 -12 10 -18 0 -7 -4 -6 -10 3 -9 13
-11 13 -20 0 -5 -8 -10 -10 -10 -5 0 6 -10 -2 -23 -17 -15 -17 -28 -24 -36
-19 -9 6 -7 10 8 14 12 3 21 11 21 17 0 10 -4 9 -16 0 -8 -8 -14 -9 -13 -4 1
5 0 11 -1 14 -7 19 -5 56 4 62 16 11 -6 9 -24 -2 -8 -5 -11 -12 -7 -16 4 -4
-1 -16 -10 -27 -17 -19 -17 -20 -1 -14 10 3 20 1 24 -5 4 -7 3 -8 -4 -4 -7 4
-12 0 -13 -11 0 -12 -2 -14 -6 -4 -4 11 -7 11 -13 1 -5 -8 -2 -19 5 -27 17
-16 29 -17 19 -1 -4 7 -3 8 5 4 6 -4 9 -11 6 -16 -7 -12 63 -62 77 -54 6 4 8
3 5 -3 -7 -11 23 -28 65 -37 19 -4 30 -1 37 11 6 10 11 13 11 6 0 -6 -5 -15
-11 -19 -7 -4 -1 -12 17 -19 24 -10 32 -10 49 4 18 15 19 15 6 -1 -11 -15 -11
-18 0 -18 8 0 24 -3 37 -6 19 -5 21 -3 16 12 -6 18 -6 18 8 0 14 -18 46 -19
177 -6 2 0 -3 8 -10 18 -11 14 -11 15 1 5 8 -7 22 -13 32 -13 27 0 88 32 81
43 -3 6 -1 7 5 3 7 -4 28 0 47 10 41 19 55 35 23 26 -14 -3 -19 -1 -14 6 4 6
-2 20 -13 31 -11 11 -17 22 -13 25 3 3 13 -6 23 -21 18 -27 45 -38 55 -22 5 8
-9 13 -28 11 -3 -1 -9 5 -12 13 -5 13 -1 13 25 0 16 -9 34 -13 39 -10 6 3 10
3 10 -2 0 -11 -83 -66 -145 -96 -143 -70 -367 -61 -520 21 -75 40 -194 164
-237 247 -38 72 -68 192 -68 267 0 154 65 308 184 438 54 59 5 21 -58 -44 -26
-28 -39 -37 -28 -21 104 150 290 243 489 244 45 1 106 -4 135 -10z m-2342
-489 l0 -480 238 0 237 0 -3 -104 c-2 -76 -7 -104 -15 -101 -23 8 -204 14
-444 14 l-243 1 -2 558 c-2 306 -7 565 -12 575 -8 16 1 17 118 17 l126 0 0
-480z m852 245 c75 -126 138 -238 140 -249 3 -21 54 55 198 299 56 94 87 157
84 168 -5 16 5 17 125 17 72 0 131 -2 131 -4 0 -3 -12 -17 -26 -33 -15 -15
-103 -149 -196 -298 -94 -148 -179 -283 -190 -298 -19 -27 -20 -43 -19 -273 1
-135 5 -253 8 -261 6 -15 4 -15 -17 0 -19 13 -47 17 -117 17 l-93 0 0 238 0
239 -143 229 c-211 337 -243 387 -266 412 -12 12 -21 25 -21 28 0 2 59 3 132
2 l132 -3 138 -230z m2798 119 c0 -65 -4 -113 -9 -110 -5 3 -123 7 -262 8
l-254 3 4 -25 c2 -14 5 -71 8 -127 l4 -103 220 0 219 0 0 -102 0 -103 -228 3
-228 3 0 -118 c-1 -116 -1 -117 6 -33 l6 85 2 -112 2 -113 268 0 267 0 0 -97
0 -98 -381 3 -382 2 -1 563 c-1 360 -5 563 -11 565 -6 2 -10 8 -10 13 0 5 156
9 380 9 l380 0 0 -116z m550 -261 c0 -227 4 -393 10 -415 19 -66 70 -130 130
-163 45 -24 67 -29 120 -29 72 0 113 17 170 68 19 17 27 22 19 11 -34 -43 -29
-48 8 -8 22 22 45 58 53 80 17 50 28 813 11 813 -6 0 -11 5 -11 10 0 6 45 10
114 10 l114 0 -3 -147 c-2 -82 -3 -269 -4 -416 -1 -148 -5 -266 -9 -263 -5 3
-16 -19 -26 -49 -37 -119 -134 -221 -261 -275 -54 -22 -74 -25 -186 -25 -125
0 -125 0 -202 38 -136 67 -231 188 -257 326 -6 30 -10 217 -10 420 0 272 -3
370 -12 379 -9 9 15 12 110 12 l122 0 0 -377z m1461 90 c94 -159 176 -291 181
-294 5 -3 6 -14 2 -25 -10 -26 4 -12 24 24 10 17 27 48 39 69 12 21 80 137
152 258 72 120 129 220 127 222 -2 2 -20 -23 -41 -56 -20 -34 -39 -61 -41 -61
-6 0 12 34 51 96 l33 51 106 1 107 2 -1 -591 c-1 -473 -4 -588 -14 -574 -10
14 -26 16 -99 13 l-87 -3 0 383 c0 250 -3 382 -10 382 -12 0 -56 -67 -222
-340 -66 -107 -123 -199 -128 -204 -4 -4 -14 2 -20 15 -7 13 -27 47 -45 74
-18 28 -92 146 -164 263 -119 190 -155 242 -137 197 7 -20 18 -803 10 -787 -4
8 -35 12 -105 12 l-99 0 0 564 c0 310 -3 571 -6 580 -5 14 8 16 105 16 l110 0
172 -287z m418 90 c-12 -21 -46 -77 -76 -126 -29 -48 -76 -126 -103 -174 -28
-48 -50 -82 -50 -76 0 13 239 413 247 413 2 0 -5 -17 -18 -37z m-3583 -725 c4
-7 3 -8 -4 -4 -7 4 -12 2 -12 -5 0 -7 -3 -10 -6 -6 -6 5 3 27 11 27 2 0 7 -5
11 -12z m-589 -13 c0 -8 -4 -15 -9 -15 -10 0 -11 14 -1 23 9 10 10 9 10 -8z
m630 -58 c-3 -7 -6 -5 -6 5 -1 11 -6 15 -16 12 -17 -7 -18 -3 -9 21 6 14 8 13
21 -5 8 -11 12 -26 10 -33z m-517 23 c19 -11 31 -19 26 -20 -5 0 -5 -6 0 -13
5 -7 2 -5 -6 4 -9 9 -29 23 -45 32 -17 9 -25 16 -20 16 6 0 26 -8 45 -19z
m-44 -38 c-17 -16 -18 -16 -5 5 7 12 15 20 18 17 3 -2 -3 -12 -13 -22z m49 -2
c10 -11 16 -20 13 -20 -3 0 -13 9 -23 20 -10 11 -16 20 -13 20 3 0 13 -9 23
-20z m392 14 c-3 -3 -12 -4 -19 -1 -8 3 -5 6 6 6 11 1 17 -2 13 -5z m154 -21
c13 -16 12 -17 -3 -4 -17 13 -22 21 -14 21 2 0 10 -8 17 -17z m-621 3 c0 -2
-9 -6 -20 -9 -11 -3 -18 -1 -14 4 5 9 34 13 34 5z m190 -6 c0 -5 -2 -10 -4
-10 -3 0 -8 5 -11 10 -3 6 -1 10 4 10 6 0 11 -4 11 -10z m170 0 c-12 -8 -10
-10 8 -10 13 0 20 4 17 10 -3 6 1 7 9 4 16 -6 23 -25 9 -23 -28 5 -53 -2 -47
-13 4 -7 3 -8 -5 -4 -6 4 -8 12 -5 18 5 7 1 9 -9 5 -10 -3 -17 -2 -17 3 0 5 8
11 18 13 30 8 37 7 22 -3z m100 -19 c8 -16 9 -21 1 -16 -7 4 -18 2 -25 -4 -9
-8 -13 -7 -13 4 0 8 4 12 8 9 4 -2 10 0 14 6 3 5 1 10 -5 10 -6 0 -8 5 -5 11
8 12 8 12 25 -20z m-218 5 c5 -8 8 -7 8 2 0 6 8 12 17 12 14 0 14 -3 -5 -15
-16 -12 -26 -13 -42 -5 -25 13 -25 17 -2 17 9 0 20 -5 24 -11z m258 4 c-8 -5
-19 -10 -25 -10 -5 0 -3 5 5 10 8 5 20 10 25 10 6 0 3 -5 -5 -10z m-510 -10
c0 -5 -5 -10 -11 -10 -5 0 -7 5 -4 10 3 6 8 10 11 10 2 0 4 -4 4 -10z m57 4
c-3 -3 -12 -4 -19 -1 -8 3 -5 6 6 6 11 1 17 -2 13 -5z m92 -21 c2 -1 -5 -1
-16 0 -11 0 -20 7 -20 14 0 10 4 10 16 1 9 -7 18 -13 20 -15z m401 6 c0 -12
-27 -12 -35 1 -4 6 1 7 11 3 13 -5 15 -3 9 7 -5 9 -4 11 3 6 7 -4 12 -11 12
-17z m-228 -7 c-16 -2 -20 -7 -14 -15 7 -8 5 -17 -5 -26 -13 -12 -14 -11 -8 9
6 18 4 22 -9 17 -8 -3 -18 -2 -21 3 -4 6 3 10 15 10 12 0 19 4 16 9 -3 4 7 6
22 2 25 -5 26 -6 4 -9z m-272 -4 c0 -4 -7 -8 -15 -8 -8 0 -15 4 -15 8 0 5 7 9
15 9 8 0 15 -4 15 -9z m46 -4 c-5 -12 -2 -15 11 -10 14 6 15 4 6 -5 -14 -14
-34 -3 -26 16 3 8 7 15 10 15 3 0 2 -7 -1 -16z m98 0 c3 -8 2 -12 -4 -9 -6 3
-10 10 -10 16 0 14 7 11 14 -7z m56 -4 c0 -5 -10 -10 -22 -9 -22 0 -22 1 -3 9
11 5 21 9 23 9 1 1 2 -3 2 -9z m-80 -10 c0 -5 -5 -10 -11 -10 -5 0 -7 5 -4 10
3 6 8 10 11 10 2 0 4 -4 4 -10z m314 2 c2 -4 0 -14 -6 -22 -8 -12 -9 -12 -5 2
3 9 1 19 -6 22 -9 3 -9 5 0 5 6 1 14 -3 17 -7z m46 -8 c0 -2 -7 -4 -15 -4 -8
0 -15 4 -15 10 0 5 7 7 15 4 8 -4 15 -8 15 -10z m-126 -25 c-3 -5 -11 -9 -17
-8 -8 0 -8 2 1 6 10 4 10 8 0 21 -12 15 -11 16 4 3 10 -7 15 -17 12 -22z m26
20 c0 -6 7 -9 15 -5 8 3 15 1 15 -4 0 -16 -37 -11 -44 5 -3 8 -1 15 4 15 6 0
10 -5 10 -11z m-386 -7 c3 -5 -1 -9 -9 -9 -8 0 -15 4 -15 9 0 4 4 8 9 8 6 0
12 -4 15 -8z m286 -22 c0 -5 -5 -10 -11 -10 -5 0 -7 5 -4 10 3 6 8 10 11 10 2
0 4 -4 4 -10z m-55 -10 c4 -6 -6 -10 -22 -9 -25 0 -26 1 -8 9 11 5 21 9 22 9
1 1 5 -3 8 -9z m160 -8 c-3 -3 -11 0 -18 7 -9 10 -8 11 6 5 10 -3 15 -9 12
-12z"/>
<path d="M7685 8398 c11 -6 34 -22 50 -37 17 -14 14 -9 -7 12 -20 20 -43 37
-50 37 -7 0 -4 -6 7 -12z"/>
<path d="M6260 8196 c0 -2 8 -10 18 -17 15 -13 16 -12 3 4 -13 16 -21 21 -21
13z"/>
<path d="M6335 8130 c10 -11 20 -20 23 -20 3 0 -3 9 -13 20 -10 11 -20 20 -23
20 -3 0 3 -9 13 -20z"/>
<path d="M6400 8050 c6 -11 13 -20 16 -20 2 0 0 9 -6 20 -6 11 -13 20 -16 20
-2 0 0 -9 6 -20z"/>
<path d="M8084 7765 c-10 -8 -14 -15 -8 -15 6 0 17 7 24 15 16 19 9 19 -16 0z"/>
<path d="M7441 7474 c-27 -25 -107 -107 -177 -182 l-128 -137 182 180 c100 99
182 181 182 182 0 8 -13 -2 -59 -43z"/>
<path d="M6970 6995 c-24 -25 -40 -45 -34 -45 13 0 89 78 83 85 -3 2 -25 -16
-49 -40z"/>
<path d="M6740 7345 c-19 -19 -30 -35 -24 -35 5 0 22 16 37 35 36 45 30 45
-13 0z"/>
<path d="M6555 7150 c-10 -11 -13 -20 -7 -20 6 0 16 9 22 20 6 11 9 20 7 20
-2 0 -12 -9 -22 -20z"/>
<path d="M7495 6730 c-3 -6 1 -7 9 -4 18 7 21 14 7 14 -6 0 -13 -4 -16 -10z"/>
<path d="M7660 6736 c0 -2 7 -7 16 -10 8 -3 12 -2 9 4 -6 10 -25 14 -25 6z"/>
<path d="M7740 6676 c0 -2 8 -10 18 -17 15 -13 16 -12 3 4 -13 16 -21 21 -21
13z"/>
<path d="M6870 6086 c0 -2 8 -10 18 -17 15 -13 16 -12 3 4 -13 16 -21 21 -21
13z"/>
<path d="M6515 5630 c60 -60 112 -110 115 -110 2 0 -45 50 -105 110 -60 61
-112 110 -115 110 -2 0 45 -49 105 -110z"/>
<path d="M6810 5345 c30 -30 57 -55 59 -55 3 0 -19 25 -49 55 -30 30 -57 55
-59 55 -3 0 19 -25 49 -55z"/>
<path d="M6990 5320 c-11 -8 -7 -9 15 -4 37 8 45 14 19 14 -10 0 -26 -5 -34
-10z"/>
<path d="M4248 3473 c6 -2 18 -2 25 0 6 3 1 5 -13 5 -14 0 -19 -2 -12 -5z"/>
<path d="M4298 3473 c6 -2 18 -2 25 0 6 3 1 5 -13 5 -14 0 -19 -2 -12 -5z"/>
<path d="M4363 3473 c9 -2 23 -2 30 0 6 3 -1 5 -18 5 -16 0 -22 -2 -12 -5z"/>
<path d="M4428 3463 c7 -3 16 -2 19 1 4 3 -2 6 -13 5 -11 0 -14 -3 -6 -6z"/>
<path d="M4570 3409 c30 -16 67 -42 82 -56 16 -15 28 -23 28 -19 0 17 -130
106 -155 106 -5 0 15 -14 45 -31z"/>
<path d="M3815 3011 c-3 -5 0 -13 6 -17 7 -4 9 -3 5 4 -3 6 2 13 11 15 16 4
16 5 1 6 -9 0 -19 -3 -23 -8z"/>
<path d="M3904 2986 c-3 -8 -4 -25 -2 -38 3 -17 5 -13 9 15 5 38 2 47 -7 23z"/>
<path d="M3864 2959 c-4 -7 -3 -9 4 -5 5 3 13 0 15 -6 4 -9 6 -10 6 -1 1 17
-16 25 -25 12z"/>
<path d="M3795 2920 c-3 -6 1 -7 9 -4 18 7 21 14 7 14 -6 0 -13 -4 -16 -10z"/>
<path d="M3856 2921 c-3 -5 2 -15 12 -22 15 -13 16 -12 4 3 -11 14 -10 17 5
21 16 4 16 5 1 6 -9 0 -19 -3 -22 -8z"/>
<path d="M3899 2905 c-6 -26 10 -117 23 -130 7 -7 8 -2 3 15 -5 14 -11 50 -15
80 -3 31 -8 46 -11 35z"/>
<path d="M3857 2866 c-6 -16 19 -43 30 -33 3 4 -2 10 -11 13 -13 5 -14 9 -6
14 8 5 8 10 2 14 -5 3 -12 -1 -15 -8z"/>
<path d="M3794 2849 c-3 -6 4 -21 17 -33 l23 -21 -18 22 c-10 12 -15 27 -11
32 3 6 4 11 1 11 -3 0 -8 -5 -12 -11z"/>
<path d="M3750 2830 c-9 -6 -10 -10 -3 -10 6 0 15 5 18 10 8 12 4 12 -15 0z"/>
<path d="M3750 2796 c0 -8 7 -17 16 -20 13 -5 14 -4 6 7 -7 8 -9 17 -5 20 3 4
1 7 -5 7 -7 0 -12 -6 -12 -14z"/>
<path d="M3885 2790 c3 -5 8 -10 11 -10 2 0 4 5 4 10 0 6 -5 10 -11 10 -5 0
-7 -4 -4 -10z"/>
<path d="M3790 2771 c0 -6 -7 -11 -15 -11 -16 0 -20 -21 -7 -34 4 -4 8 -12 8
-17 1 -5 2 -13 3 -17 0 -5 8 -9 17 -9 14 0 14 2 -2 14 -10 7 -13 13 -5 13 8 0
7 5 -4 17 -16 15 -15 17 5 28 15 8 19 15 11 19 -6 4 -11 2 -11 -3z"/>
<path d="M3833 2753 c-3 -7 -8 -11 -12 -9 -4 3 -13 0 -21 -5 -23 -14 20 -6 48
9 12 7 27 10 32 7 5 -3 12 -1 15 5 4 7 -5 10 -25 8 -18 -1 -35 -8 -37 -15z"/>
<path d="M3925 2750 c3 -5 8 -10 11 -10 2 0 4 5 4 10 0 6 -5 10 -11 10 -5 0
-7 -4 -4 -10z"/>
<path d="M3897 2728 c-14 -7 -15 -13 -7 -23 14 -17 23 -78 10 -70 -16 10 -11
-7 8 -28 16 -20 16 -20 -3 -13 -11 5 -27 9 -35 11 -9 1 -9 0 -2 -2 7 -3 17
-15 22 -29 6 -15 15 -22 25 -18 8 3 13 10 10 14 -8 13 6 40 19 40 7 0 13 7 13
15 0 8 -8 15 -18 15 -24 0 -35 20 -18 31 10 6 11 9 2 9 -7 0 -13 6 -13 14 0 8
-6 17 -12 20 -7 3 -3 3 10 0 12 -3 22 -1 22 5 0 16 -14 20 -33 9z m43 -102 c0
-11 -19 -15 -25 -6 -3 5 1 10 9 10 9 0 16 -2 16 -4z"/>
<path d="M3849 2721 c18 -11 -1 -23 -26 -15 -17 5 -17 5 0 -6 14 -9 22 -9 32
0 16 13 11 30 -8 30 -8 0 -8 -3 2 -9z"/>
<path d="M3943 2715 c0 -8 4 -15 9 -15 4 0 8 4 8 9 0 6 -4 12 -8 15 -5 3 -9
-1 -9 -9z"/>
<path d="M3855 2684 c-19 -14 -19 -15 2 -11 26 4 38 13 26 20 -4 3 -17 -1 -28
-9z"/>
<path d="M3790 2665 c0 -2 5 -15 11 -29 12 -25 39 -44 39 -27 0 5 -7 11 -15
15 -8 3 -15 15 -15 26 0 11 -4 20 -10 20 -5 0 -10 -2 -10 -5z"/>
<path d="M3841 2638 c5 -10 17 -18 26 -18 9 0 13 3 10 7 -4 3 -3 11 2 17 6 8
0 11 -19 11 -24 0 -27 -3 -19 -17z"/>
<path d="M3866 2563 c1 -16 7 -27 13 -25 6 1 11 -5 11 -15 0 -9 3 -14 6 -10 7
6 -17 77 -26 77 -3 0 -5 -12 -4 -27z"/>
<path d="M2062 2970 c0 -19 2 -27 5 -17 2 9 2 25 0 35 -3 9 -5 1 -5 -18z"/>
<path d="M1914 2941 c0 -11 5 -17 13 -14 10 4 11 9 2 19 -15 18 -15 18 -15 -5z"/>
<path d="M1881 2924 c0 -11 3 -14 6 -6 3 7 2 16 -1 19 -3 4 -6 -2 -5 -13z"/>
<path d="M1881 2884 c0 -11 3 -14 6 -6 3 7 2 16 -1 19 -3 4 -6 -2 -5 -13z"/>
<path d="M1916 2868 c5 -38 9 -44 17 -23 4 8 2 15 -3 15 -5 0 -7 6 -4 14 3 8
1 17 -4 20 -5 3 -8 -8 -6 -26z"/>
<path d="M2048 2893 c7 -3 16 -2 19 1 4 3 -2 6 -13 5 -11 0 -14 -3 -6 -6z"/>
<path d="M1980 2887 c0 -2 15 -16 33 -33 l32 -29 -29 33 c-28 30 -36 37 -36
29z"/>
<path d="M1880 2846 c0 -8 6 -16 14 -19 10 -4 12 0 9 14 -6 22 -23 26 -23 5z"/>
<path d="M2059 2843 c0 -10 -2 -26 -4 -35 -2 -10 0 -20 5 -23 4 -3 8 13 8 35
1 39 -7 58 -9 23z"/>
<path d="M1955 2820 c3 -5 14 -10 23 -10 15 0 15 2 2 10 -20 13 -33 13 -25 0z"/>
<path d="M1882 2798 c2 -29 38 -60 38 -33 0 8 5 15 12 15 6 0 8 3 5 6 -4 4
-13 1 -22 -6 -10 -9 -15 -9 -16 -1 -3 26 -4 30 -12 37 -4 4 -6 -4 -5 -18z"/>
<path d="M1957 2793 c-12 -12 -7 -23 11 -23 13 0 14 2 3 9 -11 7 -11 9 0 14 8
3 9 6 3 6 -6 1 -14 -2 -17 -6z"/>
<path d="M2005 2790 c-18 -7 -18 -8 8 -15 15 -4 31 -5 34 -1 4 3 -2 6 -13 6
-16 0 -17 2 -4 10 18 12 3 12 -25 0z"/>
<path d="M1937 2748 c4 -8 -10 -11 -39 -9 -12 2 -18 -4 -17 -16 0 -10 3 -13 6
-5 6 16 24 16 21 0 -2 -7 7 -14 20 -16 12 -2 22 2 22 8 0 7 7 10 15 6 8 -3 15
-1 15 4 0 13 -27 13 -35 0 -4 -6 -11 -8 -16 -4 -18 11 22 31 57 29 19 -1 34 2
34 6 0 4 -20 6 -44 6 -24 -1 -42 -5 -39 -9z"/>
<path d="M2050 2740 c-13 -8 -12 -10 3 -10 9 0 17 5 17 10 0 12 -1 12 -20 0z"/>
<path d="M2004 2718 c12 -6 14 -13 8 -17 -7 -4 -3 -12 11 -20 20 -13 21 -13 9
1 -10 13 -10 17 0 21 11 4 10 6 0 6 -7 1 -11 5 -8 9 2 4 -5 9 -17 9 -21 2 -21
1 -3 -9z"/>
<path d="M2059 2695 c-1 -14 -2 -33 -2 -42 -1 -10 -13 -26 -27 -35 -19 -14
-21 -18 -7 -18 9 0 17 5 17 10 0 6 4 10 10 10 5 0 9 -21 8 -47 0 -27 -3 -42
-5 -35 -7 20 -20 14 -18 -10 1 -12 7 -24 15 -26 8 -3 10 0 5 9 -5 8 0 6 12 -4
11 -9 22 -15 25 -12 2 3 5 -1 5 -8 0 -18 -28 -18 -45 0 -7 7 -19 13 -25 13 -7
0 -3 -8 8 -16 19 -15 19 -15 -9 -8 -25 6 -28 4 -23 -10 5 -11 1 -16 -14 -16
-20 0 -20 0 1 22 11 12 20 28 20 35 0 7 5 13 10 13 6 0 10 5 10 11 0 6 -7 9
-15 6 -8 -4 -17 -2 -20 3 -3 5 -11 8 -18 6 -7 -1 -9 -1 -4 1 4 3 5 9 1 14 -8
13 20 11 34 -3 9 -9 15 -9 23 -1 8 8 6 14 -10 22 -11 6 -24 11 -28 10 -21 -4
-32 3 -38 22 -4 11 -9 18 -12 15 -3 -3 2 -17 11 -31 14 -22 15 -26 2 -31 -8
-3 -23 -1 -33 6 -16 9 -15 10 7 5 23 -6 24 -5 7 8 -10 8 -27 13 -38 10 -17 -5
-20 -13 -18 -59 1 -30 6 -54 11 -54 4 0 8 -5 8 -11 0 -5 -4 -8 -8 -5 -5 3 -9
-11 -10 -30 -1 -27 2 -35 13 -31 7 3 19 -1 25 -8 7 -8 16 -13 20 -10 5 3 12 0
16 -6 4 -8 3 -9 -4 -5 -7 4 -12 3 -12 -3 0 -7 86 -10 245 -10 190 0 244 2 239
12 -5 9 -3 9 7 0 16 -16 79 -17 79 -2 0 8 4 8 14 0 12 -10 15 -1 18 59 1 40 1
73 -2 75 -3 1 -106 4 -230 4 -123 1 -226 4 -229 7 -8 8 -11 36 -12 122 0 45
-2 82 -5 82 -2 0 -5 -11 -5 -25z m-34 -133 c-3 -3 -11 0 -18 7 -9 10 -8 11 6
5 10 -3 15 -9 12 -12z m-100 -10 c11 -2 23 -8 26 -14 3 -5 14 -11 24 -12 11
-2 21 -8 23 -14 5 -15 -24 -16 -33 -1 -4 6 -13 8 -21 5 -8 -3 -11 0 -7 10 3 7
0 14 -7 14 -6 0 -8 -4 -5 -10 3 -5 1 -10 -5 -10 -6 0 -8 -5 -5 -11 4 -6 13 -8
21 -5 7 3 16 1 19 -4 4 -6 -3 -10 -14 -10 -32 0 -36 1 -33 11 1 5 -2 9 -8 9
-5 0 -10 5 -10 11 0 5 4 8 9 5 5 -3 11 1 14 9 4 9 1 12 -9 8 -9 -3 -14 1 -14
13 0 11 4 15 8 9 4 -5 16 -12 27 -13z m249 -84 c4 3 4 -2 0 -11 -3 -10 -7 -17
-8 -15 -1 2 -10 17 -20 33 -17 30 -17 30 2 8 11 -12 23 -19 26 -15z m336 22
c3 -1 8 -2 13 -1 4 0 7 -5 7 -13 0 -19 -31 -29 -44 -16 -8 8 -6 9 7 5 16 -7
24 5 11 18 -11 11 -46 -14 -40 -29 3 -8 1 -14 -4 -14 -6 0 -10 6 -11 13 0 6
-2 19 -4 27 -2 11 6 15 29 13 17 -1 33 -2 36 -3z m-530 -11 c0 -5 -4 -7 -10
-4 -5 3 -10 2 -10 -4 0 -6 -7 -7 -17 -4 -11 4 -14 3 -9 -5 4 -7 3 -12 -3 -12
-23 0 -19 19 6 28 37 14 43 14 43 1z m370 -14 c0 -8 8 -19 18 -25 16 -11 16
-11 -1 -6 -10 3 -25 6 -33 6 -8 0 -14 5 -14 11 0 5 5 7 12 3 8 -5 9 0 6 14 -4
12 -2 20 3 16 5 -3 9 -11 9 -19z m40 15 c0 -5 -7 -7 -15 -4 -8 4 -15 8 -15 10
0 2 7 4 15 4 8 0 15 -4 15 -10z m-102 -30 c-7 -11 -14 -17 -17 -15 -2 3 1 11
7 18 7 8 8 18 4 22 -4 5 -1 5 5 1 10 -5 10 -11 1 -26z m147 10 c3 -5 2 -10 -4
-10 -5 0 -13 5 -16 10 -3 6 -2 10 4 10 5 0 13 -4 16 -10z m-335 -8 c0 -5 -13
-7 -30 -4 -32 5 -38 -5 -17 -27 10 -11 10 -13 0 -7 -7 4 -13 2 -13 -4 0 -6 -5
-8 -11 -4 -8 4 -7 9 2 15 11 7 9 9 -5 9 -20 0 -20 0 0 15 20 15 74 20 74 7z
m45 -2 c3 -5 1 -10 -4 -10 -6 0 -11 5 -11 10 0 6 2 10 4 10 3 0 8 -4 11 -10z
m269 -16 c3 -8 2 -12 -4 -9 -6 3 -10 10 -10 16 0 14 7 11 14 -7z m-474 -4 c0
-5 -5 -10 -11 -10 -5 0 -7 5 -4 10 3 6 8 10 11 10 2 0 4 -4 4 -10z m30 1 c0
-6 -4 -12 -8 -15 -5 -3 -9 1 -9 9 0 8 4 15 9 15 4 0 8 -4 8 -9z m124 -18 c8
-20 -11 -43 -29 -36 -12 4 -12 7 1 20 11 12 12 18 3 29 -9 12 -9 13 4 8 8 -3
18 -13 21 -21z m23 12 c0 -8 -4 -12 -9 -9 -5 3 -6 10 -3 15 9 13 12 11 12 -6z
m-113 -3 c3 -5 -1 -9 -9 -9 -8 0 -15 4 -15 9 0 4 4 8 9 8 6 0 12 -4 15 -8z
m213 2 c-3 -3 -12 -4 -19 -1 -8 3 -5 6 6 6 11 1 17 -2 13 -5z m253 2 c0 -2 -9
-6 -20 -9 -11 -3 -20 -1 -20 4 0 5 9 9 20 9 11 0 20 -2 20 -4z m55 -18 c5 4 5
1 1 -6 -4 -7 -11 -10 -16 -7 -4 3 -10 -1 -13 -7 -3 -7 -4 -3 -4 9 1 15 5 19
13 13 6 -6 15 -6 19 -2z m-382 -13 c-3 -9 -8 -14 -10 -11 -3 3 -2 9 2 15 9 16
15 13 8 -4z m40 -5 c9 -11 13 -20 7 -20 -5 0 -14 9 -20 20 -6 11 -9 20 -8 20
2 0 11 -9 21 -20z m140 5 c-3 -9 -8 -14 -10 -11 -3 3 -2 9 2 15 9 16 15 13 8
-4z m103 3 c5 -7 3 -8 -5 -4 -7 5 -22 0 -34 -11 l-22 -18 19 23 c21 25 32 27
42 10z m-401 -10 c3 -2 -1 -5 -7 -5 -7 0 -22 -4 -32 -9 -13 -5 -17 -4 -13 3 4
6 1 14 -5 16 -7 3 2 4 20 3 17 -2 34 -5 37 -8z m246 -5 c13 -16 12 -17 -3 -4
-10 7 -18 15 -18 17 0 8 8 3 21 -13z"/>
<path d="M2076 2393 c-6 -14 -5 -15 5 -6 7 7 10 15 7 18 -3 3 -9 -2 -12 -12z"/>
<path d="M1890 2696 c0 -2 7 -9 15 -16 9 -7 15 -8 15 -2 0 5 -7 12 -15 16 -8
3 -15 4 -15 2z"/>
<path d="M1970 2689 c0 -6 -7 -9 -15 -5 -9 3 -19 -3 -25 -14 -6 -11 -7 -20 -3
-21 4 0 -1 -5 -12 -10 -19 -8 -19 -9 -1 -6 11 1 20 10 22 20 4 29 10 30 39 4
24 -21 26 -25 11 -30 -9 -4 -15 -3 -12 1 7 12 -12 38 -21 29 -4 -5 -2 -12 6
-16 7 -5 12 -11 12 -15 -3 -18 0 -23 14 -23 22 0 27 28 10 47 -9 10 -12 20 -7
21 6 2 4 10 -4 17 -10 9 -14 9 -14 1z"/>
<path d="M1881 2643 c-1 -40 1 -43 24 -41 14 1 25 6 25 11 0 4 -8 7 -17 5 -13
-2 -19 6 -24 32 l-6 35 -2 -42z"/>
<path d="M2025 2649 c-4 -6 -5 -12 -2 -15 2 -3 7 2 10 11 7 17 1 20 -8 4z"/>
<path d="M1893 2393 c-23 -8 -14 -33 12 -33 14 0 25 4 25 9 0 14 -24 29 -37
24z"/>
<path d="M2791 3443 c7 -12 15 -20 18 -17 3 2 -3 12 -13 22 -17 16 -18 16 -5
-5z"/>
<path d="M2872 3315 c10 -30 192 -325 201 -325 5 0 3 8 -5 18 -9 9 -52 78 -96
152 -81 134 -107 174 -100 155z"/>
<path d="M2980 2996 c0 -2 8 -10 18 -17 15 -13 16 -12 3 4 -13 16 -21 21 -21
13z"/>
<path d="M3113 2937 c1 -18 9 -32 22 -38 20 -10 20 -10 1 5 -14 12 -16 16 -5
16 9 0 10 3 3 8 -6 4 -14 14 -17 22 -3 8 -5 2 -4 -13z"/>
<path d="M3196 2951 c-19 -7 -19 -8 0 -13 13 -3 21 0 21 8 0 8 -1 14 -1 13 -1
0 -10 -4 -20 -8z"/>
<path d="M2958 2903 c7 -3 16 -2 19 1 4 3 -2 6 -13 5 -11 0 -14 -3 -6 -6z"/>
<path d="M3000 2900 c-9 -6 -10 -10 -3 -10 6 0 15 5 18 10 8 12 4 12 -15 0z"/>
<path d="M2970 2875 c8 -11 15 -21 16 -23 1 -2 5 5 8 15 4 9 4 14 0 10 -4 -4
-14 -1 -23 6 -14 11 -15 10 -1 -8z"/>
<path d="M3195 2880 c-3 -5 -1 -10 4 -10 6 0 11 5 11 10 0 6 -2 10 -4 10 -3 0
-8 -4 -11 -10z"/>
<path d="M3013 2864 c4 -4 -1 -12 -9 -19 -13 -9 -14 -12 -2 -12 7 0 19 6 25
13 9 9 8 14 -5 19 -9 3 -13 3 -9 -1z"/>
<path d="M3116 2858 c3 -5 10 -6 15 -3 13 9 11 12 -6 12 -8 0 -12 -4 -9 -9z"/>
<path d="M3065 2850 c-3 -6 1 -7 9 -4 18 7 21 14 7 14 -6 0 -13 -4 -16 -10z"/>
<path d="M3156 2847 c-16 -12 -16 -13 3 -13 11 0 23 6 25 13 3 7 2 13 -2 13
-5 0 -16 -6 -26 -13z"/>
<path d="M3090 2830 c-9 -6 -10 -10 -3 -10 6 0 15 5 18 10 8 12 4 12 -15 0z"/>
<path d="M3135 2810 c21 -5 24 -8 10 -10 -62 -6 -72 -12 -48 -31 11 -9 14 -10
9 -1 -13 21 6 13 30 -13 16 -17 23 -36 22 -60 -1 -19 -5 -35 -9 -35 -4 0 -6
11 -3 24 2 14 -1 28 -7 32 -8 4 -9 3 -5 -4 4 -7 2 -12 -5 -12 -8 0 -8 -4 1
-15 7 -8 9 -15 5 -15 -4 0 -2 -7 5 -15 24 -29 30 -14 30 75 l0 90 -32 -1 -33
-1 30 -8z m22 -40 c1 -11 -1 -20 -5 -20 -4 0 -13 9 -20 20 -10 17 -10 20 6 20
11 0 18 -8 19 -20z"/>
<path d="M3035 2790 c-3 -6 2 -13 12 -17 10 -3 21 -8 25 -10 4 -2 5 3 2 11 -3
9 -12 12 -21 9 -11 -4 -14 -2 -9 5 4 7 5 12 2 12 -3 0 -8 -5 -11 -10z"/>
<path d="M3039 2747 c11 -15 11 -17 -2 -17 -8 0 -18 6 -21 13 -3 6 -4 -1 -1
-16 4 -22 3 -27 -7 -21 -7 4 -10 4 -6 0 4 -5 3 -19 -2 -32 -6 -15 -6 -24 0
-24 6 0 10 5 10 10 0 22 2 25 23 37 14 8 17 12 7 13 -21 0 19 27 50 33 21 4
20 5 -5 4 -17 -1 -37 3 -45 8 -13 8 -13 7 -1 -8z"/>
<path d="M3072 2722 c-8 -5 -10 -16 -6 -27 6 -15 4 -17 -14 -13 -12 4 -22 2
-22 -3 0 -5 9 -9 20 -9 11 0 20 -5 20 -10 0 -6 -11 -8 -26 -4 -25 6 -26 5 -20
-24 5 -19 3 -33 -5 -38 -8 -4 -9 -3 -5 4 4 7 2 20 -4 29 -9 15 -10 14 -4 -6 4
-16 3 -21 -5 -17 -6 4 -11 3 -11 -2 0 -10 23 -22 40 -22 5 0 7 16 5 35 -2 19
1 35 6 35 5 0 9 -5 9 -10 0 -6 11 -3 25 6 13 8 29 13 35 9 5 -3 10 1 10 9 0
18 -16 21 -25 6 -4 -6 -11 -8 -16 -4 -6 3 0 15 13 26 l23 20 -25 -6 c-24 -7
-24 -6 -6 8 20 17 11 22 -12 8z"/>
<path d="M3123 2618 c6 -23 6 -23 -10 -3 -15 20 -15 20 -8 -2 4 -14 2 -23 -4
-23 -13 0 -10 -20 6 -37 17 -19 25 -16 13 6 -12 23 -13 31 -2 30 26 -4 32 2
21 22 -8 17 -8 20 2 17 15 -5 22 -68 8 -68 -6 0 -7 5 -4 10 3 6 1 10 -4 10
-16 0 -13 -11 6 -32 16 -18 16 -19 -3 -13 -18 6 -18 6 0 -9 18 -14 18 -15 -3
-13 -11 1 -21 5 -21 10 0 5 -9 7 -20 4 -11 -3 -20 -1 -20 5 0 6 -11 8 -25 5
-17 -3 -24 0 -22 7 5 12 9 12 47 1 24 -7 24 -6 7 11 -17 18 -87 27 -87 12 0
-5 6 -8 13 -8 7 0 3 -8 -8 -17 l-20 -16 20 7 c19 6 19 5 2 -8 -12 -9 -14 -16
-8 -21 6 -3 18 1 27 9 20 20 21 20 51 -4 14 -11 30 -17 36 -13 6 3 7 1 3 -5
-5 -9 -15 -8 -36 3 -38 20 -51 19 -44 -2 5 -15 4 -16 -5 -3 -8 11 -11 12 -11
2 0 -7 -4 -10 -10 -7 -12 7 -12 6 -15 -67 l-1 -58 42 0 c28 0 44 5 48 15 3 8
11 15 18 15 10 0 10 -2 -1 -9 -17 -11 -5 -17 37 -19 l32 -2 0 134 c0 113 -2
135 -16 140 -28 11 -36 6 -31 -16z m27 -139 c0 -6 -4 -7 -10 -4 -5 3 -10 11
-10 16 0 6 5 7 10 4 6 -3 10 -11 10 -16z m-74 -4 c4 -9 15 -13 30 -11 25 5 28
0 26 -42 -1 -12 3 -20 7 -17 5 3 12 -2 15 -10 5 -13 2 -14 -17 -3 -12 7 -26
11 -32 10 -5 -1 -1 5 9 13 14 11 16 15 5 15 -12 0 -12 2 1 10 13 9 13 10 0 11
-8 1 -19 2 -25 4 -5 1 -16 3 -23 3 -7 1 -11 6 -8 11 4 5 0 12 -6 14 -10 4 -10
6 0 6 7 1 15 -6 18 -14z m-42 -53 c2 -4 -4 -8 -14 -8 -10 0 -16 4 -14 8 3 4 9
8 14 8 5 0 11 -4 14 -8z m51 -2 c-27 -12 -43 -12 -25 0 8 5 22 9 30 9 10 0 8
-3 -5 -9z m-64 -37 c13 -16 12 -17 -3 -4 -17 13 -22 21 -14 21 2 0 10 -8 17
-17z m46 11 c-3 -3 -12 -4 -19 -1 -8 3 -5 6 6 6 11 1 17 -2 13 -5z"/>
<path d="M3063 2605 c-18 -20 -16 -24 7 -18 11 3 20 12 20 19 0 18 -11 17 -27
-1z"/>
<path d="M5082 3434 c10 -10 20 -16 22 -13 3 3 -5 11 -17 18 -21 13 -21 12 -5
-5z"/>
<path d="M5258 3303 c7 -3 16 -2 19 1 4 3 -2 6 -13 5 -11 0 -14 -3 -6 -6z"/>
<path d="M5418 3303 c6 -2 18 -2 25 0 6 3 1 5 -13 5 -14 0 -19 -2 -12 -5z"/>
<path d="M5468 3303 c7 -3 16 -2 19 1 4 3 -2 6 -13 5 -11 0 -14 -3 -6 -6z"/>
<path d="M5548 3303 c7 -3 16 -2 19 1 4 3 -2 6 -13 5 -11 0 -14 -3 -6 -6z"/>
<path d="M5030 3115 c0 -8 4 -15 10 -15 5 0 7 7 4 15 -4 8 -8 15 -10 15 -2 0
-4 -7 -4 -15z"/>
<path d="M5075 3119 c-4 -6 -5 -12 -2 -15 2 -3 7 2 10 11 7 17 1 20 -8 4z"/>
<path d="M5136 3108 c3 -5 10 -6 15 -3 13 9 11 12 -6 12 -8 0 -12 -4 -9 -9z"/>
<path d="M5194 3106 c1 -8 5 -18 8 -22 4 -3 5 1 4 10 -1 8 -5 18 -8 22 -4 3
-5 -1 -4 -10z"/>
<path d="M5186 3058 c3 -5 10 -6 15 -3 13 9 11 12 -6 12 -8 0 -12 -4 -9 -9z"/>
<path d="M5031 3034 c0 -11 3 -14 6 -6 3 7 2 16 -1 19 -3 4 -6 -2 -5 -13z"/>
<path d="M5200 3025 c0 -8 4 -15 10 -15 5 0 7 7 4 15 -4 8 -8 15 -10 15 -2 0
-4 -7 -4 -15z"/>
<path d="M5145 3006 c11 -8 16 -20 12 -29 -3 -9 -3 -18 1 -21 4 -3 9 5 9 17 2
23 -13 47 -30 47 -6 0 -2 -6 8 -14z"/>
<path d="M5333 2983 c59 -2 155 -2 215 0 59 1 10 3 -108 3 -118 0 -167 -2
-107 -3z"/>
<path d="M5355 2960 c3 -4 16 -7 30 -7 13 0 23 3 20 7 -3 4 -16 8 -30 8 -13 0
-23 -4 -20 -8z"/>
<path d="M5460 2966 c0 -2 8 -10 18 -17 15 -13 16 -12 3 4 -13 16 -21 21 -21
13z"/>
<path d="M5588 2958 c5 -5 16 -8 23 -6 8 3 3 7 -10 11 -17 4 -21 3 -13 -5z"/>
<path d="M5641 2954 c0 -11 3 -14 6 -6 3 7 2 16 -1 19 -3 4 -6 -2 -5 -13z"/>
<path d="M5226 2937 c3 -10 9 -15 12 -12 3 3 0 11 -7 18 -10 9 -11 8 -5 -6z"/>
<path d="M5288 2928 c10 -13 10 -17 0 -21 -9 -4 -9 -6 -1 -6 20 -2 24 16 5 30
-15 13 -16 12 -4 -3z"/>
<path d="M5415 2930 c3 -5 8 -10 11 -10 2 0 4 5 4 10 0 6 -5 10 -11 10 -5 0
-7 -4 -4 -10z"/>
<path d="M5030 2922 c0 -5 7 -9 15 -9 8 0 12 4 9 9 -3 4 -9 8 -15 8 -5 0 -9
-4 -9 -8z"/>
<path d="M5572 2913 c2 -10 12 -18 23 -18 13 0 20 -7 20 -20 0 -11 8 -21 18
-23 11 -2 17 3 17 15 0 14 -2 15 -9 4 -6 -9 -11 -10 -15 -2 -4 6 -4 11 0 11 3
0 1 7 -6 15 -7 9 -20 13 -28 10 -10 -3 -12 0 -8 10 3 8 1 15 -5 15 -6 0 -9 -8
-7 -17z"/>
<path d="M5641 2914 c0 -11 3 -14 6 -6 3 7 2 16 -1 19 -3 4 -6 -2 -5 -13z"/>
<path d="M5323 2905 c0 -8 4 -12 9 -9 5 3 6 10 3 15 -9 13 -12 11 -12 -6z"/>
<path d="M5051 2897 c2 -1 13 -9 24 -17 19 -14 19 -14 6 3 -7 9 -18 17 -24 17
-6 0 -8 -1 -6 -3z"/>
<path d="M5345 2889 c-4 -6 -5 -12 -2 -15 2 -3 7 2 10 11 7 17 1 20 -8 4z"/>
<path d="M5500 2896 c0 -2 7 -9 15 -16 13 -11 14 -10 9 4 -5 14 -24 23 -24 12z"/>
<path d="M5366 2882 c-3 -5 1 -9 9 -9 8 0 12 4 9 9 -3 4 -7 8 -9 8 -2 0 -6 -4
-9 -8z"/>
<path d="M5410 2875 c0 -7 -12 -16 -27 -18 -16 -2 -5 -4 22 -4 28 -1 41 2 31
4 -13 4 -15 7 -7 13 10 5 9 9 -3 13 -10 4 -16 1 -16 -8z"/>
<path d="M5487 2871 c23 -22 39 -28 28 -11 -3 5 -16 15 -28 21 l-22 11 22 -21z"/>
<path d="M5545 2870 c-16 -17 -16 -20 -3 -15 9 4 19 13 22 21 7 19 2 18 -19
-6z"/>
<path d="M5204 2856 c-2 -20 1 -22 11 -13 7 7 10 18 8 24 -8 21 -18 15 -19
-11z"/>
<path d="M5252 2864 c-11 -12 -8 -14 15 -14 15 0 24 4 18 8 -5 4 -12 10 -15
14 -3 3 -11 0 -18 -8z"/>
<path d="M5170 2860 c0 -5 5 -10 11 -10 5 0 7 5 4 10 -3 6 -8 10 -11 10 -2 0
-4 -4 -4 -10z"/>
<path d="M5570 2866 c0 -2 7 -7 16 -10 8 -3 12 -2 9 4 -6 10 -25 14 -25 6z"/>
<path d="M5033 2839 c1 -21 5 -25 22 -22 11 2 15 1 8 -3 -10 -4 -10 -10 0 -25
6 -10 16 -19 21 -19 4 0 2 7 -5 16 -11 14 -10 18 9 33 l22 16 -22 14 c-20 13
-22 12 -11 -1 7 -8 10 -17 7 -20 -10 -11 -43 4 -47 21 -3 9 -4 4 -4 -10z"/>
<path d="M5121 2831 c-9 -16 -7 -17 15 -13 29 5 39 18 23 28 -8 4 -9 3 -5 -4
4 -7 1 -12 -9 -12 -9 0 -13 5 -10 10 3 6 4 10 1 10 -3 0 -10 -8 -15 -19z"/>
<path d="M5188 2819 c6 -7 12 -20 12 -28 0 -11 -5 -10 -22 5 l-23 19 19 -23
c11 -12 17 -25 14 -28 -3 -3 -15 6 -26 20 -16 21 -21 23 -26 11 -3 -9 0 -15 8
-15 7 0 21 -9 32 -21 l19 -21 6 24 c12 40 10 56 -8 63 -15 5 -16 4 -5 -6z"/>
<path d="M5033 2782 c1 -14 5 -18 11 -12 7 7 6 14 -1 21 -9 9 -12 7 -10 -9z"/>
<path d="M5098 2757 c-9 -6 -8 -7 5 -3 9 3 17 1 17 -4 0 -6 5 -10 10 -10 6 0
10 6 10 13 0 16 -23 18 -42 4z"/>
<path d="M5055 2738 c4 -13 14 -30 22 -38 9 -8 13 -10 9 -3 -3 6 -2 14 4 18
16 10 12 28 -5 22 -8 -4 -17 -2 -20 3 -3 4 1 11 7 13 8 3 5 6 -5 6 -14 1 -17
-4 -12 -21z"/>
<path d="M5031 2662 c1 -51 5 -92 10 -92 5 0 9 7 9 15 0 18 16 20 26 3 5 -7 3
-8 -6 -3 -10 6 -12 4 -7 -9 4 -9 3 -15 -1 -13 -4 3 -14 -2 -22 -11 -13 -14
-12 -15 2 -9 10 3 26 -2 40 -14 13 -11 17 -18 11 -14 -7 3 -13 2 -13 -4 0 -5
6 -11 13 -14 6 -2 0 -4 -15 -3 -14 0 -24 4 -21 9 2 4 -1 7 -7 7 -6 0 -8 5 -5
10 3 6 2 10 -3 10 -5 0 -10 -21 -10 -46 -1 -25 1 -43 6 -40 4 2 14 -4 21 -16
7 -11 8 -17 2 -13 -6 3 -11 2 -11 -3 0 -6 7 -12 15 -16 8 -3 15 0 15 6 0 7 5
7 14 -2 8 -6 13 -17 10 -25 -4 -10 34 -12 198 -11 130 1 202 5 201 11 -2 6 -7
10 -12 10 -23 0 -17 11 7 14 62 6 76 5 79 -6 3 -7 -4 -10 -19 -6 -18 5 -21 3
-11 -7 13 -14 73 -20 73 -7 0 4 -8 7 -17 8 -10 0 -13 3 -7 5 6 3 23 -2 39 -10
21 -11 34 -12 48 -4 14 7 17 7 13 -1 -4 -6 -2 -11 3 -11 6 0 11 5 11 10 0 6 5
10 11 10 5 0 7 -5 3 -11 -4 -7 -1 -10 7 -7 10 3 14 24 14 74 l0 69 -252 1
c-139 1 -259 4 -268 8 -11 4 -15 20 -15 55 0 50 0 50 -25 41 -16 -6 -25 -6
-25 0 0 6 -7 10 -15 10 -8 0 -15 -7 -15 -16 0 -13 7 -15 35 -11 43 7 44 3 3
-17 -36 -18 -50 -21 -28 -5 11 8 7 9 -17 5 -20 -3 -33 -1 -33 5 0 6 4 8 9 5 5
-3 11 1 15 9 5 15 -26 39 -54 40 -17 0 -28 45 -11 45 6 0 8 -6 6 -12 -3 -7 6
-18 20 -25 24 -11 25 -10 19 10 -6 19 -5 20 9 8 9 -7 14 -17 11 -22 -3 -5 0
-9 6 -9 7 0 9 9 5 23 -3 12 -3 17 2 11 5 -6 18 -7 33 -3 l25 7 -27 1 c-21 1
-26 5 -22 19 5 16 5 16 -6 0 -6 -9 -17 -15 -24 -12 -8 3 -17 1 -21 -5 -10 -17
-23 -13 -21 7 0 9 -4 16 -9 15 -6 -1 -12 10 -13 24 -1 15 -4 29 -7 32 -3 3 -5
-36 -4 -87z m66 -58 c-5 -5 -57 13 -57 20 0 3 14 0 31 -6 16 -6 28 -12 26 -14z
m98 -44 c3 -5 2 -10 -4 -10 -5 0 -13 5 -16 10 -3 6 -2 10 4 10 5 0 13 -4 16
-10z m-85 -10 c-12 -8 -12 -10 -1 -10 8 0 12 -3 8 -6 -9 -9 -28 6 -22 17 4 5
12 9 18 9 7 0 6 -4 -3 -10z m40 -9 c0 -4 12 -7 26 -5 14 1 23 0 20 -3 -3 -4
-1 -12 6 -20 9 -11 7 -12 -7 -7 -13 5 -16 4 -11 -4 5 -8 1 -10 -11 -5 -16 6
-16 5 -4 -10 11 -14 11 -18 -3 -23 -8 -3 -21 -4 -28 -1 -7 3 -2 6 11 6 20 1
21 3 11 16 -10 12 -9 16 4 21 9 3 16 11 16 16 0 6 -6 8 -14 5 -8 -3 -20 1 -26
9 -9 10 -9 14 -1 14 6 0 11 -4 11 -9z m115 -51 c3 -5 1 -10 -4 -10 -6 0 -11 5
-11 10 0 6 2 10 4 10 3 0 8 -4 11 -10z m-54 -23 c-13 -13 -26 -3 -16 12 3 6
11 8 17 5 6 -4 6 -10 -1 -17z m94 13 c3 -6 -1 -7 -9 -4 -18 7 -21 14 -7 14 6
0 13 -4 16 -10z m163 3 c-10 -2 -28 -2 -40 0 -13 2 -5 4 17 4 22 1 32 -1 23
-4z m100 -49 c-13 -13 -15 -13 -15 0 0 8 4 13 9 10 4 -3 8 -1 8 5 0 5 -4 13
-10 16 -5 3 -10 11 -10 18 0 6 7 1 16 -12 14 -20 15 -25 2 -37z m69 42 c0 -8
-8 -11 -19 -8 -10 2 -18 7 -18 11 0 4 8 7 18 8 10 1 19 -4 19 -11z m40 -13 c1
-19 -1 -22 -8 -12 -6 10 -9 10 -9 2 0 -7 -5 -13 -11 -13 -8 0 -8 4 1 15 6 8 9
19 5 25 -3 5 0 10 7 10 7 0 14 -12 15 -27z m53 17 c0 -5 -4 -10 -10 -10 -5 0
-10 5 -10 10 0 6 5 10 10 10 6 0 10 -4 10 -10z m-638 -22 c-17 -17 -15 -31 3
-25 8 4 17 2 20 -3 8 -14 -29 -12 -42 1 -8 8 -6 16 6 28 9 10 18 16 20 14 3
-2 -1 -9 -7 -15z m168 -13 c5 3 11 1 15 -4 3 -6 -6 -8 -21 -5 -16 3 -23 1 -19
-6 3 -5 13 -10 21 -10 8 0 14 -4 14 -10 0 -5 -7 -6 -17 -3 -11 4 -14 3 -9 -5
4 -7 5 -12 2 -12 -2 0 -11 13 -19 29 -11 21 -12 32 -4 40 8 8 14 7 20 -4 4 -9
12 -13 17 -10z m30 15 c24 -15 7 -18 -20 -3 -14 7 -18 13 -10 13 8 0 22 -4 30
-10z m124 1 c4 -5 -3 -7 -14 -4 -23 6 -26 13 -6 13 8 0 17 -4 20 -9z m66 -4
c0 -6 -3 -7 -6 -4 -4 3 -14 2 -24 -3 -12 -6 -17 -5 -17 4 0 8 11 14 24 14 13
0 23 -5 23 -11z m50 -7 c13 -9 13 -10 0 -10 -12 0 -12 -2 -1 -9 9 -6 5 -8 -14
-8 -25 0 -26 1 -9 10 17 10 17 11 -1 18 -13 5 -15 8 -5 8 8 0 22 -4 30 -9z
m76 -13 c0 -13 -6 -24 -13 -24 -8 0 -9 6 -3 17 5 10 6 20 3 24 -3 3 -2 6 4 6
6 0 10 -10 9 -23z m-441 3 c-3 -5 -14 -10 -23 -9 -14 0 -13 2 3 9 27 11 27 11
20 0z m208 3 c-7 -2 -21 -2 -30 0 -10 3 -4 5 12 5 17 0 24 -2 18 -5z m-163
-23 c8 -5 11 -10 5 -10 -5 0 -17 5 -25 10 -8 5 -10 10 -5 10 6 0 17 -5 25 -10z
m117 3 c-22 -3 -27 -8 -22 -21 5 -13 3 -14 -6 -5 -17 17 -2 33 29 32 l27 -2
-28 -4z m123 -3 c0 -5 -7 -7 -15 -4 -8 4 -15 8 -15 10 0 2 7 4 15 4 8 0 15 -4
15 -10z m185 0 c3 -5 1 -10 -4 -10 -6 0 -11 5 -11 10 0 6 2 10 4 10 3 0 8 -4
11 -10z m59 1 c3 -4 -6 -6 -19 -3 -14 2 -25 6 -25 8 0 8 39 4 44 -5z m-557
-17 c-3 -3 -12 -4 -19 -1 -8 3 -5 6 6 6 11 1 17 -2 13 -5z m53 -4 c0 -5 -5
-10 -11 -10 -5 0 -7 5 -4 10 3 6 8 10 11 10 2 0 4 -4 4 -10z m480 -11 c0 -5
-4 -9 -8 -9 -5 0 -9 7 -9 15 0 8 4 12 9 9 4 -3 8 -9 8 -15z m-215 1 c-3 -5
-12 -7 -20 -3 -21 7 -19 13 6 13 11 0 18 -4 14 -10z"/>
<path d="M5140 2722 c0 -12 19 -26 26 -19 2 2 -2 10 -11 17 -9 8 -15 8 -15 2z"/>
<path d="M5193 2716 c4 -10 -4 -19 -21 -25 l-27 -11 28 5 c19 4 26 2 22 -5 -3
-5 -1 -10 4 -10 6 0 11 14 11 30 0 17 -5 30 -11 30 -6 0 -9 -6 -6 -14z"/>
<path d="M5105 2711 c-3 -5 -1 -12 5 -16 5 -3 10 1 10 9 0 18 -6 21 -15 7z"/>
<path d="M5187 2654 c-8 -8 1 -24 14 -24 5 0 9 7 9 15 0 15 -12 20 -23 9z"/>
<path d="M5150 2635 c7 -9 15 -13 17 -11 7 7 -7 26 -19 26 -6 0 -6 -6 2 -15z"/>
<path d="M5030 2396 c0 -32 2 -35 30 -34 25 1 55 28 30 28 -6 0 -10 -6 -10
-12 0 -9 -4 -8 -10 2 -9 13 -10 13 -10 0 -1 -8 -5 -5 -11 8 -5 13 -7 28 -3 33
3 5 0 9 -5 9 -6 0 -11 -15 -11 -34z"/>
<path d="M5525 2392 c-19 -13 -15 -32 6 -32 17 0 19 3 10 13 -6 8 -8 17 -4 20
9 9 0 9 -12 -1z"/>
<path d="M6101 3444 c0 -11 3 -14 6 -6 3 7 2 16 -1 19 -3 4 -6 -2 -5 -13z"/>
<path d="M6178 2953 c6 -3 9 -9 6 -15 -4 -6 1 -6 13 1 11 6 23 8 27 6 3 -3 4
-2 1 2 -3 3 -17 7 -32 9 -16 1 -22 0 -15 -3z"/>
<path d="M6946 2908 c3 -5 10 -6 15 -3 13 9 11 12 -6 12 -8 0 -12 -4 -9 -9z"/>
<path d="M6136 2893 c6 -4 14 -15 17 -23 5 -11 6 -9 4 4 -1 11 -9 21 -17 23
-10 3 -11 2 -4 -4z"/>
<path d="M6176 2887 c3 -10 9 -15 12 -12 3 3 0 11 -7 18 -10 9 -11 8 -5 -6z"/>
<path d="M6999 2898 c-6 -21 -5 -38 1 -38 5 0 8 9 7 20 -1 17 -5 26 -8 18z"/>
<path d="M6101 2877 c2 -1 13 -9 24 -17 19 -14 19 -14 6 3 -7 9 -18 17 -24 17
-6 0 -8 -1 -6 -3z"/>
<path d="M6200 2876 c0 -2 8 -10 18 -17 15 -13 16 -12 3 4 -13 16 -21 21 -21
13z"/>
<path d="M6256 2863 c-6 -14 -5 -15 5 -6 7 7 10 15 7 18 -3 3 -9 -2 -12 -12z"/>
<path d="M6202 2844 c10 -10 20 -16 22 -13 3 3 -5 11 -17 18 -21 13 -21 12 -5
-5z"/>
<path d="M6936 2826 c3 -9 13 -16 22 -16 8 0 13 1 11 3 -2 1 -12 9 -22 16 -15
12 -17 12 -11 -3z"/>
<path d="M7002 2800 c0 -14 2 -19 5 -12 2 6 2 18 0 25 -3 6 -5 1 -5 -13z"/>
<path d="M6101 2780 c-1 -26 5 -39 22 -49 22 -14 22 -14 4 7 -11 11 -17 24
-14 29 2 4 1 17 -4 28 -6 16 -8 13 -8 -15z"/>
<path d="M6135 2800 c3 -5 8 -10 11 -10 2 0 4 5 4 10 0 6 -5 10 -11 10 -5 0
-7 -4 -4 -10z"/>
<path d="M6880 2800 c-9 -6 -10 -10 -3 -10 6 0 15 5 18 10 8 12 4 12 -15 0z"/>
<path d="M6973 2793 c4 -3 1 -13 -6 -22 -11 -14 -10 -14 5 -2 16 12 16 31 1
31 -4 0 -3 -3 0 -7z"/>
<path d="M6200 2787 c0 -2 6 -10 14 -16 11 -9 16 -9 22 1 4 7 4 10 -1 6 -4 -4
-14 -3 -22 3 -7 6 -13 9 -13 6z"/>
<path d="M6842 2770 c0 -14 2 -19 5 -12 2 6 2 18 0 25 -3 6 -5 1 -5 -13z"/>
<path d="M6903 2772 c2 -12 6 -24 10 -28 3 -4 4 4 2 16 -6 30 -16 40 -12 12z"/>
<path d="M6131 2763 c0 -10 3 -13 5 -6 3 7 13 9 22 6 15 -4 15 -3 2 6 -22 15
-30 14 -29 -6z"/>
<path d="M6180 2776 c0 -2 8 -10 18 -17 15 -13 16 -12 3 4 -13 16 -21 21 -21
13z"/>
<path d="M6875 2770 c3 -5 8 -10 11 -10 2 0 4 5 4 10 0 6 -5 10 -11 10 -5 0
-7 -4 -4 -10z"/>
<path d="M6150 2740 c0 -5 5 -10 11 -10 5 0 7 5 4 10 -3 6 -8 10 -11 10 -2 0
-4 -4 -4 -10z"/>
<path d="M6941 2733 c7 -12 15 -20 18 -17 3 2 -3 12 -13 22 -17 16 -18 16 -5
-5z"/>
<path d="M6843 2725 c0 -8 4 -15 9 -15 4 0 8 4 8 9 0 6 -4 12 -8 15 -5 3 -9
-1 -9 -9z"/>
<path d="M6107 2705 c6 -32 11 -41 17 -34 2 2 -2 18 -10 34 l-13 30 6 -30z"/>
<path d="M6902 2721 c-10 -6 -10 -10 2 -20 9 -7 21 -11 28 -8 8 4 7 6 -4 6
-21 1 -24 17 -5 24 6 3 8 6 2 6 -5 0 -16 -3 -23 -8z"/>
<path d="M6150 2710 c0 -5 5 -10 11 -10 5 0 7 5 4 10 -3 6 -8 10 -11 10 -2 0
-4 -4 -4 -10z"/>
<path d="M6250 2699 c0 -5 5 -7 11 -3 8 4 9 -1 5 -17 -6 -20 -5 -21 4 -6 11
18 6 37 -11 37 -5 0 -9 -5 -9 -11z"/>
<path d="M6160 2690 c-25 -8 -25 -8 -2 -9 14 -1 21 -5 16 -12 -3 -6 -1 -15 5
-19 7 -4 13 -15 15 -24 1 -10 9 -22 17 -27 8 -5 10 -9 4 -9 -5 0 -4 -4 4 -9
11 -7 10 -11 -7 -20 -20 -11 -20 -12 -4 -41 10 -17 23 -28 30 -25 8 3 16 -3
19 -15 3 -11 9 -20 13 -20 5 0 6 9 3 20 -4 13 1 27 13 36 16 13 17 15 2 10
-19 -6 -35 10 -16 16 9 3 9 6 0 12 -7 4 -12 2 -12 -4 0 -6 -5 -8 -12 -4 -7 5
-8 3 -3 -6 5 -8 3 -11 -6 -8 -17 6 -19 34 -1 31 6 -2 12 2 12 7 0 6 -4 10 -10
10 -5 0 -10 6 -10 14 0 8 -7 22 -16 31 -9 9 -13 19 -9 23 3 4 13 -2 21 -12 8
-11 14 -15 14 -9 0 6 -13 22 -29 36 -17 14 -27 28 -24 31 7 7 7 7 -27 -4z m40
-30 c0 -5 -2 -10 -4 -10 -3 0 -8 5 -11 10 -3 6 -1 10 4 10 6 0 11 -4 11 -10z
m49 -136 c5 4 12 2 16 -4 13 -20 -32 -9 -51 13 l-19 22 22 -18 c12 -11 26 -16
32 -13z"/>
<path d="M6854 2688 c-5 -8 -2 -9 10 -5 14 6 17 3 12 -10 -6 -14 -4 -15 5 -6
12 12 5 33 -11 33 -5 0 -12 -5 -16 -12z"/>
<path d="M6956 2686 c3 -8 13 -17 22 -21 13 -5 13 -2 -3 15 -21 24 -26 25 -19
6z"/>
<path d="M6234 2678 c3 -21 16 -38 29 -38 7 0 4 5 -6 11 -9 6 -15 14 -12 19 3
5 1 11 -4 14 -5 4 -8 0 -7 -6z"/>
<path d="M6145 2660 c3 -5 8 -10 11 -10 2 0 4 5 4 10 0 6 -5 10 -11 10 -5 0
-7 -4 -4 -10z"/>
<path d="M6285 2655 c4 -11 8 -25 8 -32 0 -7 6 -14 14 -17 7 -3 13 -11 13 -17
0 -8 -4 -8 -15 1 -14 12 -35 6 -35 -10 0 -5 14 -22 31 -39 17 -17 24 -28 16
-25 -18 7 -43 -31 -27 -41 5 -3 15 -16 20 -28 10 -20 10 -20 -3 -5 -8 11 -21
15 -35 11 -16 -4 -22 -1 -22 11 0 9 -6 16 -13 16 -15 0 -48 36 -40 44 4 3 -1
6 -11 6 -20 0 -16 -9 32 -60 19 -22 39 -37 43 -35 4 3 9 -2 12 -10 8 -20 104
-67 112 -55 10 16 25 12 19 -5 -4 -9 3 -17 23 -22 44 -13 224 -9 261 5 17 6
45 17 62 23 16 6 27 16 23 22 -3 6 -1 7 5 3 6 -4 27 4 46 16 36 23 49 42 21
32 -8 -4 -15 -1 -15 6 0 6 4 9 9 5 10 -5 43 36 54 68 4 9 11 17 16 17 11 0
-15 -56 -30 -65 -5 -4 -9 -11 -9 -17 0 -6 11 -1 25 12 13 12 22 26 20 30 -3 5
2 11 10 14 13 5 13 9 3 25 -11 19 -14 19 -30 4 -10 -9 -18 -22 -18 -30 0 -7
-5 -13 -11 -13 -15 0 -6 44 11 52 11 5 9 7 -7 7 -25 1 -39 -15 -21 -22 8 -4 7
-6 -4 -6 -9 -1 -18 4 -20 10 -2 6 -11 7 -22 3 -19 -7 -19 -8 -1 -14 10 -4 14
-9 9 -12 -5 -2 -20 1 -34 8 -20 11 -21 14 -6 14 12 0 16 5 13 15 -4 8 -2 17 3
20 6 4 10 -2 10 -11 0 -24 8 -14 13 17 4 18 1 26 -9 26 -8 0 -14 -4 -14 -8 0
-5 -10 -17 -22 -29 -12 -11 -18 -20 -13 -20 4 0 -19 -14 -51 -31 -75 -40 -160
-49 -235 -25 -71 24 -105 51 -152 121 -22 33 -36 51 -32 40z m23 -77 c7 -7 12
-8 12 -4 0 5 20 -10 45 -33 24 -22 49 -41 55 -41 5 0 10 -7 10 -16 0 -8 -4
-12 -10 -9 -21 13 -8 -11 15 -28 24 -18 25 -17 25 3 0 12 -4 19 -8 16 -5 -3
-9 1 -9 8 0 8 6 12 14 9 7 -3 13 -9 13 -14 0 -5 5 -9 11 -9 5 0 7 4 4 10 -3 5
0 8 7 6 7 -3 25 -7 41 -10 15 -4 27 -11 27 -17 0 -6 -4 -8 -8 -5 -12 7 -54
-23 -47 -34 3 -4 -8 -13 -25 -18 -19 -7 -32 -7 -36 -1 -3 5 -2 9 3 8 22 -4 44
2 39 10 -4 5 0 12 6 14 7 3 3 6 -10 6 -16 1 -21 -3 -16 -11 5 -7 -5 -3 -20 10
-30 23 -52 29 -41 12 3 -5 1 -10 -4 -10 -13 0 -13 2 -2 34 8 18 6 28 -5 37
-20 16 -30 3 -13 -18 11 -15 11 -16 -1 -5 -15 13 -34 17 -27 5 3 -5 1 -17 -4
-28 -7 -18 -8 -18 -8 -2 -1 10 -4 16 -9 13 -4 -2 -15 2 -25 9 -16 12 -16 13 9
19 20 5 25 12 21 26 -3 11 -1 18 4 14 5 -3 9 -1 9 5 0 5 -16 15 -35 21 -19 6
-35 16 -35 21 0 13 14 11 28 -3z m456 -60 c22 -9 24 -14 13 -26 -10 -13 -9
-15 6 -9 12 4 17 1 17 -11 0 -15 2 -15 10 -2 6 9 10 10 10 3 0 -16 -17 -26
-25 -14 -4 7 -14 6 -30 -1 -13 -6 -21 -16 -18 -22 4 -5 -10 0 -31 12 -20 12
-44 22 -52 22 -8 0 -12 5 -9 10 4 7 12 7 25 0 13 -7 21 -6 30 5 10 12 10 15
-1 15 -8 0 -5 6 7 15 23 18 18 17 48 3z m-151 -55 c-7 -2 -19 -2 -25 0 -7 3
-2 5 12 5 14 0 19 -2 13 -5z m73 -18 c4 -8 14 -15 24 -15 11 0 21 -4 24 -9 9
-13 -37 -1 -49 14 -5 6 -17 14 -25 18 -12 4 -11 6 3 6 10 1 20 -6 23 -14z
m-48 -24 c26 -28 26 -28 10 -37 -6 -4 -8 -3 -5 3 6 9 -44 62 -51 54 -1 -1 -8
0 -15 2 -6 3 -1 4 13 4 14 -1 35 -12 48 -26z m32 3 c0 -2 -9 0 -20 6 -11 6
-20 13 -20 16 0 2 9 0 20 -6 11 -6 20 -13 20 -16z m104 0 c3 -8 2 -12 -4 -9
-6 3 -10 10 -10 16 0 14 7 11 14 -7z m-340 -2 c3 -5 -1 -9 -9 -9 -8 0 -12 4
-9 9 3 4 7 8 9 8 2 0 6 -4 9 -8z m156 -7 c7 -8 17 -12 23 -8 6 3 7 1 3 -5 -4
-7 -2 -12 5 -12 7 0 9 -3 6 -6 -4 -4 -13 -1 -21 5 -8 7 -20 10 -25 6 -6 -3 -8
0 -5 9 3 8 -2 16 -13 19 -14 4 -15 5 -2 6 9 0 22 -6 29 -14z m215 5 c3 -5 1
-10 -4 -10 -6 0 -11 5 -11 10 0 6 2 10 4 10 3 0 8 -4 11 -10z m-445 -16 c0 -2
-9 -4 -20 -4 -11 0 -20 4 -20 9 0 5 9 7 20 4 11 -3 20 -7 20 -9z m38 -9 c-3
-3 -9 2 -12 12 -6 14 -5 15 5 6 7 -7 10 -15 7 -18z m156 -2 c5 -13 4 -14 -9
-3 -10 8 -15 9 -15 1 0 -6 -5 -11 -11 -11 -8 0 -9 4 0 13 6 8 8 17 4 21 -4 4
0 4 9 1 9 -4 19 -14 22 -22z m140 1 c3 -8 2 -12 -4 -9 -6 3 -10 10 -10 16 0
14 7 11 14 -7z m66 -4 c0 -5 -5 -10 -11 -10 -5 0 -7 5 -4 10 3 6 8 10 11 10 2
0 4 -4 4 -10z m-30 -10 c0 -5 -5 -10 -11 -10 -5 0 -7 5 -4 10 3 6 8 10 11 10
2 0 4 -4 4 -10z m-131 -14 c-2 -3 -18 -6 -34 -8 -17 -2 -32 -6 -35 -9 -3 -4
-11 -1 -17 6 -10 11 -5 14 28 13 22 0 43 2 46 6 4 3 9 4 11 1 3 -3 3 -7 1 -9z
m96 -4 c-3 -3 -11 0 -18 7 -9 10 -8 11 6 5 10 -3 15 -9 12 -12z m-62 -7 c-3
-9 -8 -14 -10 -11 -3 3 -2 9 2 15 9 16 15 13 8 -4z"/>
<path d="M6350 2514 c0 -8 5 -12 10 -9 6 4 8 11 5 16 -9 14 -15 11 -15 -7z"/>
<path d="M6320 2482 c0 -5 7 -9 15 -9 8 0 12 4 9 9 -3 4 -9 8 -15 8 -5 0 -9
-4 -9 -8z"/>
<path d="M6490 2448 c0 -15 16 -16 35 -2 18 13 18 14 -8 12 -15 -1 -27 -6 -27
-10z"/>
<path d="M6732 2513 c-6 -3 -10 -8 -7 -13 3 -5 -1 -15 -10 -23 -13 -13 -12
-15 5 -20 10 -3 27 1 37 8 17 13 17 14 1 20 -10 4 -18 11 -18 16 0 4 7 6 15 3
8 -4 15 -4 15 -1 0 8 -24 14 -38 10z"/>
<path d="M6930 2660 c8 -5 20 -10 25 -10 6 0 3 5 -5 10 -8 5 -19 10 -25 10 -5
0 -3 -5 5 -10z"/>
<path d="M6121 2630 c9 -23 13 -27 24 -17 14 13 9 31 -6 22 -5 -4 -9 1 -9 9 0
9 -4 16 -9 16 -6 0 -6 -12 0 -30z"/>
<path d="M6813 2645 c-3 -9 -3 -18 -1 -21 3 -3 8 4 11 16 6 23 -1 27 -10 5z"/>
<path d="M6851 2649 c8 -5 8 -8 0 -13 -6 -4 -11 -12 -11 -17 0 -6 5 -7 10 -4
6 3 10 2 10 -4 0 -5 -6 -11 -12 -14 -7 -2 -5 -3 5 -1 9 1 22 -5 28 -14 9 -15
9 -14 4 3 -4 11 -8 25 -8 32 0 7 -4 10 -9 7 -4 -3 -8 -1 -8 3 0 5 12 14 28 19
26 10 26 10 -10 10 -21 0 -33 -3 -27 -7z"/>
<path d="M6910 2639 c-13 -9 -13 -10 0 -6 19 6 52 -11 45 -23 -3 -5 0 -12 6
-16 7 -4 9 -3 5 4 -3 5 -1 12 4 14 6 2 -2 11 -18 20 -20 12 -32 14 -42 7z"/>
<path d="M6258 2623 c7 -3 16 -2 19 1 4 3 -2 6 -13 5 -11 0 -14 -3 -6 -6z"/>
<path d="M6890 2609 c0 -4 3 -14 6 -23 9 -23 23 -20 17 4 -3 12 0 20 6 20 7 0
9 -4 6 -10 -3 -5 -1 -10 4 -10 6 0 11 7 11 15 0 10 -9 14 -25 13 -14 -1 -25
-6 -25 -9z"/>
<path d="M6245 2600 c-3 -6 1 -7 9 -4 18 7 21 14 7 14 -6 0 -13 -4 -16 -10z"/>
<path d="M6147 2588 c-5 -14 10 -48 21 -48 4 0 13 10 21 23 7 12 10 19 6 14
-5 -4 -16 0 -26 9 -13 12 -18 12 -22 2z m23 -18 c0 -5 -2 -10 -4 -10 -3 0 -8
5 -11 10 -3 6 -1 10 4 10 6 0 11 -4 11 -10z"/>
<path d="M6825 2571 c-3 -5 -1 -12 5 -16 5 -3 10 -2 10 4 0 5 8 12 18 14 13 4
12 5 -5 6 -12 0 -24 -3 -28 -8z"/>
<path d="M6941 2566 c-7 -8 -8 -17 -3 -20 6 -3 12 3 15 14 6 24 4 25 -12 6z"/>
<path d="M7766 3127 c3 -10 9 -15 12 -12 3 3 0 11 -7 18 -10 9 -11 8 -5 -6z"/>
<path d="M7830 3026 c0 -13 40 -85 51 -92 6 -4 -1 15 -17 42 -32 57 -34 60
-34 50z"/>
<path d="M8060 2930 c-9 -6 -10 -10 -3 -10 6 0 15 5 18 10 8 12 4 12 -15 0z"/>
<path d="M7890 2911 c0 -10 29 -36 34 -30 1 2 -6 12 -16 22 -10 9 -18 13 -18
8z"/>
<path d="M8316 2898 c3 -5 10 -6 15 -3 13 9 11 12 -6 12 -8 0 -12 -4 -9 -9z"/>
<path d="M8406 2858 c3 -4 11 -5 19 -1 21 7 19 12 -4 10 -11 0 -18 -5 -15 -9z"/>
<path d="M8318 2822 c-11 -15 -11 -15 3 -5 12 10 18 10 27 1 6 -6 14 -10 16
-7 3 3 -3 10 -14 16 -15 10 -21 9 -32 -5z"/>
<path d="M7480 2810 c8 -5 20 -10 25 -10 6 0 3 5 -5 10 -8 5 -19 10 -25 10 -5
0 -3 -5 5 -10z"/>
<path d="M8434 2807 c5 -15 2 -17 -13 -12 -11 3 -23 0 -27 -6 -5 -8 -2 -10 8
-6 9 3 21 0 27 -6 8 -8 11 -8 11 1 0 7 6 12 13 12 8 0 14 7 14 15 0 8 -4 15
-9 15 -4 0 -8 -6 -8 -12 0 -9 -4 -8 -11 2 -9 13 -10 12 -5 -3z"/>
<path d="M7432 2801 c-11 -6 -9 -9 6 -13 15 -4 19 -2 15 8 -6 16 -4 16 -21 5z"/>
<path d="M7550 2775 c0 -22 -4 -33 -12 -31 -7 1 -10 1 -5 -1 4 -3 5 -9 2 -14
-4 -5 1 -6 9 -3 11 4 16 19 16 45 0 21 -2 39 -5 39 -3 0 -5 -16 -5 -35z"/>
<path d="M8318 2789 c-6 -4 4 -6 21 -5 17 0 31 4 31 8 0 8 -37 6 -52 -3z"/>
<path d="M8318 2764 c-9 -19 -9 -72 0 -78 6 -3 8 2 5 14 -3 11 -1 26 5 33 6 7
7 19 3 26 -5 7 -10 9 -13 5z"/>
<path d="M8397 2760 c10 -10 90 -24 81 -15 -4 4 -26 11 -48 15 -23 4 -38 4
-33 0z"/>
<path d="M7459 2737 c15 -15 14 -25 -5 -29 -11 -2 -6 -7 13 -14 23 -9 30 -8
30 2 0 6 -5 10 -12 8 -6 -3 -11 5 -11 16 0 15 5 19 21 14 11 -4 17 -3 13 1 -4
4 -19 9 -34 11 -20 2 -24 0 -15 -9z"/>
<path d="M8373 2743 c-7 -3 -13 -9 -13 -14 0 -6 4 -7 10 -4 12 7 53 -19 43
-28 -3 -4 -16 -7 -27 -8 -19 0 -18 -1 4 -11 14 -6 20 -12 13 -15 -7 -2 -21 0
-32 6 -25 14 -40 14 -21 0 12 -8 9 -9 -12 -5 -20 5 -28 2 -28 -8 0 -9 9 -13
25 -12 14 0 25 4 25 9 0 4 5 7 10 7 6 0 10 -7 8 -16 -2 -10 3 -19 11 -22 8 -3
11 0 7 6 -3 6 -1 14 5 18 7 4 9 3 5 -4 -4 -7 1 -10 14 -9 24 2 24 2 5 31 -15
22 -14 24 15 36 36 15 40 33 5 24 -16 -4 -25 -2 -25 6 0 7 -6 10 -14 7 -8 -3
-16 -2 -18 2 -2 4 -9 6 -15 4z"/>
<path d="M7430 2730 c0 -5 5 -10 11 -10 5 0 7 5 4 10 -3 6 -8 10 -11 10 -2 0
-4 -4 -4 -10z"/>
<path d="M8337 2715 c-8 -20 7 -27 35 -15 22 10 22 10 -4 5 -22 -4 -26 -2 -22
10 4 8 4 15 1 15 -3 0 -7 -7 -10 -15z"/>
<path d="M7547 2713 c-3 -5 -1 -17 4 -28 6 -17 7 -16 6 8 -1 28 -3 32 -10 20z"/>
<path d="M7401 2694 c0 -11 3 -14 6 -6 3 7 2 16 -1 19 -3 4 -6 -2 -5 -13z"/>
<path d="M7902 2705 c4 -4 0 -14 -10 -21 -16 -12 -16 -13 0 -19 9 -4 14 -13
11 -21 -8 -20 8 -17 41 10 20 17 25 26 16 31 -9 6 -11 4 -5 -5 6 -10 3 -12
-13 -8 -15 4 -19 2 -15 -9 5 -13 3 -13 -15 -2 -18 11 -19 14 -5 24 14 10 14
13 2 20 -8 5 -11 5 -7 0z"/>
<path d="M7938 2703 c7 -3 16 -2 19 1 4 3 -2 6 -13 5 -11 0 -14 -3 -6 -6z"/>
<path d="M7976 2702 c-3 -4 4 -9 15 -9 23 -2 25 3 4 10 -8 4 -16 3 -19 -1z"/>
<path d="M8454 2684 c5 -14 4 -15 -9 -4 -12 10 -15 10 -15 0 0 -13 28 -39 42
-40 5 0 6 10 4 23 -3 12 -5 25 -5 30 -1 4 -6 7 -12 7 -6 0 -8 -7 -5 -16z"/>
<path d="M7518 2678 c8 -10 9 -19 3 -22 -5 -3 -12 0 -14 6 -3 8 -6 6 -6 -4 -1
-10 6 -18 14 -18 8 0 15 5 15 11 0 8 5 8 15 -1 8 -7 15 -9 15 -4 0 5 -13 18
-28 29 -19 13 -23 14 -14 3z"/>
<path d="M7438 2663 c6 -2 12 -12 12 -21 0 -15 -2 -15 -11 -2 -8 12 -10 12 -7
1 6 -20 30 -21 48 -3 13 14 12 15 -2 10 -10 -4 -19 -1 -22 8 -3 8 -11 14 -18
13 -10 0 -10 -2 0 -6z"/>
<path d="M7401 2634 c0 -11 3 -14 6 -6 3 7 2 16 -1 19 -3 4 -6 -2 -5 -13z"/>
<path d="M7931 2626 c-9 -11 -9 -16 1 -22 7 -4 10 -4 6 1 -4 4 -3 14 3 22 6 7
9 13 6 13 -2 0 -10 -6 -16 -14z"/>
<path d="M7482 2608 c2 -16 9 -22 21 -20 9 2 17 -2 17 -8 0 -5 -6 -10 -12 -10
-9 0 -8 -4 2 -10 13 -8 12 -10 -2 -10 -10 0 -18 3 -18 8 0 4 -16 16 -35 26
-19 10 -32 23 -29 27 3 5 -2 6 -10 3 -24 -9 -20 -37 3 -29 11 3 22 1 26 -5 4
-6 -4 -10 -18 -10 -23 0 -24 -3 -25 -64 0 -56 2 -64 16 -60 15 5 15 4 2 -8 -9
-7 -17 -28 -18 -45 -2 -29 1 -33 23 -34 85 -4 135 0 135 12 0 5 -4 7 -10 4 -5
-3 -10 -1 -10 4 0 6 4 11 9 11 6 0 10 36 10 81 0 64 -3 80 -14 76 -17 -7 -26
15 -14 34 8 13 13 5 9 -16 -1 -5 4 -4 11 2 10 11 9 16 -6 26 -10 8 -15 18 -12
23 3 6 -8 11 -24 12 -26 2 -30 -1 -27 -20z m42 -4 c5 -14 4 -15 -8 -5 -11 9
-15 9 -19 -1 -4 -8 -6 -7 -6 5 -1 22 25 22 33 1z m-21 -76 c-2 -5 1 -8 6 -8 6
0 11 6 12 13 0 8 2 8 6 -2 5 -11 7 -11 14 0 7 11 9 10 9 -3 0 -17 -12 -23 -34
-19 -5 1 -13 -4 -17 -11 -6 -9 -9 -8 -10 7 -1 11 -1 23 0 27 0 4 -6 5 -13 2
-8 -3 -27 1 -43 10 -21 11 -23 15 -8 13 11 -1 26 -7 34 -11 11 -7 13 -5 8 8
-6 15 -5 15 17 -1 13 -10 22 -21 19 -25z m-79 0 c-5 -7 -2 -9 7 -6 8 3 23 2
34 -3 18 -7 18 -8 2 -8 -10 -1 -16 -5 -13 -10 3 -4 -1 -17 -9 -27 -13 -16 -16
-17 -25 -4 -13 20 -13 70 1 70 5 0 7 -5 3 -12z m123 -43 c4 -4 3 -5 -4 -2 -6
4 -13 2 -15 -5 -3 -8 -6 -6 -10 4 -7 17 15 19 29 3z m-73 -6 c-4 -8 1 -9 17
-4 19 5 21 4 9 -4 -13 -9 -12 -11 5 -12 11 0 14 -3 8 -6 -7 -2 -13 -9 -13 -14
0 -6 5 -7 10 -4 6 3 10 1 10 -4 0 -19 -22 -12 -27 9 -3 11 -10 20 -15 20 -6 0
-7 -7 -4 -16 5 -13 4 -14 -7 -6 -8 7 -16 11 -18 9 -2 -1 2 4 10 11 8 6 11 12
7 12 -4 0 -4 5 -1 10 3 6 8 10 11 10 3 0 2 -5 -2 -11z m-17 -74 c6 -14 9 -25
7 -25 -10 0 -42 39 -36 44 10 11 17 6 29 -19z m61 1 c1 -2 -6 -6 -17 -9 -11
-3 -25 1 -31 9 -9 10 -6 12 16 8 16 -3 30 -7 32 -8z"/>
<path d="M7420 2491 c0 -6 4 -12 8 -15 5 -3 9 1 9 9 0 8 -4 15 -9 15 -4 0 -8
-4 -8 -9z"/>
<path d="M7551 2614 c0 -11 3 -14 6 -6 3 7 2 16 -1 19 -3 4 -6 -2 -5 -13z"/>
<path d="M8317 2623 c-3 -5 -5 -36 -4 -70 1 -54 3 -63 19 -63 15 0 17 -4 9
-19 -11 -20 6 -43 36 -47 8 -2 18 -5 21 -8 12 -13 -34 0 -56 15 -14 11 -20 22
-16 33 3 9 1 16 -6 16 -14 0 -11 -48 5 -69 7 -11 7 -13 -2 -7 -9 5 -13 -1 -13
-18 0 -26 1 -26 84 -26 l84 0 0 136 0 135 -33 -4 c-18 -3 -38 -8 -44 -11 -6
-4 -20 -2 -32 5 -12 6 -19 7 -16 2 3 -5 -2 -14 -12 -20 -14 -9 -18 -8 -18 3 0
7 4 11 9 8 4 -3 8 0 8 5 0 13 -17 15 -23 4z m144 -13 c0 -3 2 -13 4 -22 2 -9
-4 -23 -13 -30 -12 -10 -14 -10 -8 0 4 7 1 12 -8 12 -9 0 -16 3 -16 8 0 4 -16
8 -36 10 -22 1 -33 -2 -29 -8 4 -6 11 -7 17 -4 7 4 8 2 4 -4 -4 -6 -14 -9 -24
-6 -11 4 -8 -2 8 -15 14 -11 29 -21 34 -21 5 0 7 -2 4 -5 -8 -9 -66 25 -73 42
-3 10 -3 14 1 10 4 -4 13 1 20 11 9 13 23 18 49 16 19 -2 34 0 31 4 -2 4 4 8
15 8 10 0 19 -3 20 -6z m-1 -80 c0 -5 -4 -10 -10 -10 -5 0 -10 5 -10 10 0 6 5
10 10 10 6 0 10 -4 10 -10z m0 -34 c0 -2 -9 -6 -20 -9 -11 -3 -18 -1 -14 4 5
9 34 13 34 5z m-80 -10 c0 -2 -8 -10 -17 -17 -16 -13 -17 -12 -4 4 13 16 21
21 21 13z m12 -23 c-6 -2 -9 -10 -6 -15 4 -7 2 -8 -5 -4 -13 9 -5 26 12 25 9
0 8 -2 -1 -6z m32 -29 c3 -8 2 -12 -4 -9 -6 3 -10 10 -10 16 0 14 7 11 14 -7z
m38 -41 c-6 -2 -10 -9 -6 -14 3 -5 1 -9 -5 -9 -5 0 -12 4 -15 9 -6 9 10 19 29
19 6 0 4 -2 -3 -5z m-83 -12 c10 -7 7 -9 -12 -8 -14 1 -23 5 -20 10 6 9 15 9
32 -2z"/>
<path d="M8436 2591 c-3 -5 0 -11 7 -14 8 -3 14 1 14 9 0 16 -13 19 -21 5z"/>
</g>
</svg>
