<?xml version="1.0" standalone="no"?>
<!DOCTYPE svg PUBLIC "-//W3C//DTD SVG 20010904//EN"
 "http://www.w3.org/TR/2001/REC-SVG-20010904/DTD/svg10.dtd">
<svg version="1.0" xmlns="http://www.w3.org/2000/svg"
 width="1024.000000pt" height="1024.000000pt" viewBox="0 0 1024.000000 1024.000000"
 preserveAspectRatio="xMidYMid meet">

<g transform="translate(0.000000,1024.000000) scale(0.100000,-0.100000)"
fill="#000000" stroke="none">
<path d="M5054 8841 c-66 -41 -64 -30 -64 -414 0 -394 0 -394 73 -428 54 -24
71 -24 123 1 72 35 74 49 73 423 0 347 -4 375 -51 410 -39 29 -115 33 -154 8z
m133 -11 c17 -10 36 -28 42 -38 6 -12 11 -153 12 -369 1 -311 -1 -353 -15
-376 -44 -67 -164 -63 -210 7 -14 22 -16 67 -16 372 l0 346 39 39 c32 32 46
39 77 39 22 0 53 -9 71 -20z"/>
<path d="M2669 8137 c-57 -38 -76 -106 -45 -165 8 -15 117 -129 243 -254 218
-216 230 -226 275 -233 55 -8 78 -2 118 31 38 32 55 92 40 138 -7 21 -89 111
-249 269 l-238 237 -55 0 c-41 0 -64 -6 -89 -23z m139 -1 c15 -8 129 -117 255
-243 l227 -229 0 -47 c0 -86 -80 -145 -162 -118 -22 7 -109 87 -268 246 l-235
235 0 51 c0 46 4 54 37 85 30 27 46 34 78 34 23 0 53 -6 68 -14z"/>
<path d="M7465 8144 c-48 -24 -461 -442 -481 -486 -38 -84 31 -179 129 -178
18 1 42 6 55 13 21 12 419 403 468 460 17 20 24 41 24 70 0 102 -106 167 -195
121z m116 -9 c61 -32 87 -114 51 -165 -36 -54 -469 -469 -495 -475 -83 -21
-171 61 -151 141 8 35 443 479 489 500 40 18 70 17 106 -1z"/>
<path d="M4255 7701 c-272 -44 -507 -233 -603 -487 l-27 -73 -60 -6 c-74 -9
-225 -57 -285 -92 -214 -123 -360 -305 -426 -530 -21 -74 -25 -108 -25 -213 0
-118 7 -164 46 -295 5 -17 -1 -23 -30 -34 -51 -18 -184 -121 -251 -194 -151
-165 -227 -345 -241 -567 -15 -240 74 -489 234 -661 l43 -46 -40 -69 c-60
-105 -83 -202 -82 -359 0 -148 24 -248 88 -380 101 -208 333 -398 554 -454
l75 -19 8 -68 c45 -410 328 -724 727 -809 165 -35 335 -25 490 29 238 83 426
263 514 490 l31 81 3 958 3 957 -290 0 c-261 0 -295 2 -354 20 -126 39 -239
136 -297 254 -51 104 -60 171 -60 473 l0 272 -55 27 c-157 77 -235 223 -206
384 24 134 121 241 254 282 122 37 241 5 335 -89 113 -113 136 -273 60 -415
-37 -70 -87 -117 -168 -158 l-60 -30 0 -238 c0 -246 10 -335 46 -403 31 -61
121 -145 187 -175 l62 -29 273 -3 272 -3 0 1161 c0 1305 7 1186 -78 1281 -87
97 -217 176 -347 211 -78 22 -243 31 -320 19z m249 -16 c104 -18 188 -51 270
-105 74 -48 167 -141 195 -195 21 -40 21 -42 21 -1192 l0 -1153 -248 0 c-223
0 -254 2 -309 20 -135 46 -232 167 -253 315 -5 39 -9 167 -9 285 l0 215 59 28
c112 53 188 153 211 278 38 209 -141 419 -356 419 -162 0 -321 -130 -355 -289
-36 -171 38 -324 199 -410 l61 -32 0 -277 c0 -212 4 -292 15 -341 44 -185 167
-321 347 -382 51 -17 87 -19 348 -19 l290 0 -2 -947 -3 -948 -28 -75 c-38 -98
-68 -150 -135 -233 -156 -193 -409 -309 -668 -309 -478 1 -858 346 -909 825
-7 62 -9 68 -34 73 -127 28 -238 80 -349 164 -140 105 -235 232 -292 390 -42
114 -51 166 -51 295 0 137 24 237 83 345 l42 78 -57 61 c-159 173 -246 446
-218 686 18 150 70 296 144 404 76 111 252 267 345 306 38 16 38 19 11 110
-31 103 -37 299 -14 396 38 153 99 265 216 392 130 143 321 242 507 263 49 5
62 10 62 23 0 28 92 202 134 256 116 146 282 246 465 279 102 19 161 19 265 1z"/>
<path d="M3306 5124 c-132 -42 -226 -149 -256 -291 -13 -61 7 -164 45 -228 42
-72 127 -138 216 -168 15 -5 17 -28 21 -174 3 -164 4 -169 34 -233 55 -113
135 -186 253 -231 42 -15 93 -22 211 -29 161 -8 205 -19 258 -61 45 -35 51
-57 52 -174 0 -168 24 -225 93 -225 67 0 97 62 97 201 0 162 -27 241 -110 328
-90 93 -206 131 -406 131 -131 0 -190 18 -237 70 -48 52 -65 118 -70 267 l-3
122 59 26 c73 31 169 124 198 192 28 65 38 134 27 191 -20 111 -107 219 -215
269 -68 31 -197 40 -267 17z m266 -32 c44 -20 79 -46 115 -85 90 -100 115
-216 71 -334 -29 -79 -129 -180 -212 -214 l-59 -24 6 -135 c6 -157 22 -213 76
-270 49 -51 115 -70 250 -70 275 -1 435 -99 486 -300 13 -52 15 -87 10 -179
-7 -101 -10 -117 -31 -138 -13 -13 -35 -23 -49 -23 -36 0 -75 42 -76 82 0 18
-4 86 -8 152 l-7 118 -41 38 c-54 51 -120 70 -247 70 -194 1 -308 42 -406 146
-87 94 -102 140 -109 348 l-6 168 -52 20 c-71 26 -155 104 -190 176 -23 48
-28 69 -28 142 0 72 4 94 27 142 44 94 138 173 235 198 65 16 176 4 245 -28z"/>
<path d="M3335 4971 c-81 -38 -117 -97 -116 -189 1 -104 67 -176 172 -187 47
-6 61 -3 109 22 69 36 100 89 100 172 0 146 -138 241 -265 182z m174 -25 c136
-86 90 -314 -68 -341 -113 -19 -211 65 -211 182 1 153 152 239 279 159z"/>
<path d="M5705 7696 c-122 -28 -237 -84 -331 -162 -59 -48 -141 -160 -153
-210 -8 -29 -11 -343 -11 -968 l0 -926 275 0 275 0 30 28 c29 25 32 35 46 141
11 84 23 131 44 175 35 74 113 164 178 205 26 16 53 34 60 39 10 7 9 27 -4
103 -19 109 -14 194 14 259 28 66 104 144 170 177 51 25 68 28 157 28 95 0
103 -2 163 -34 75 -41 120 -89 163 -173 28 -55 32 -73 33 -143 0 -70 -4 -88
-32 -146 -84 -175 -282 -244 -453 -158 l-36 18 -83 -67 c-46 -37 -104 -83
-129 -102 l-46 -36 -7 -87 c-3 -47 -12 -104 -19 -124 -34 -106 -101 -188 -194
-236 l-60 -32 -272 -3 -273 -3 0 -735 0 -734 246 0 c348 0 339 -7 346 245 4
135 8 169 28 220 30 79 104 153 186 186 55 22 73 23 256 24 l196 0 16 58 c38
134 134 223 270 248 156 28 310 -55 392 -212 25 -47 29 -65 29 -144 0 -77 -4
-98 -27 -147 -59 -127 -164 -198 -303 -206 -148 -8 -254 52 -319 179 l-38 76
-206 -4 c-301 -6 -294 0 -303 -278 -7 -223 -16 -253 -105 -334 -88 -80 -188
-101 -486 -101 l-180 0 5 -282 c5 -320 10 -346 83 -493 111 -226 334 -406 582
-472 171 -45 373 -35 542 28 245 91 448 299 534 545 30 84 56 209 56 264 0 37
2 40 28 40 45 0 176 45 244 83 266 151 426 389 459 686 18 158 -15 336 -86
457 l-25 43 67 83 c88 109 158 255 185 386 16 80 19 121 15 232 -3 79 -12 160
-22 195 -24 87 -105 250 -159 322 -63 83 -170 180 -245 223 -103 59 -96 45
-72 140 28 112 29 283 1 391 -85 341 -350 592 -690 656 -72 14 -94 22 -98 36
-11 44 -77 167 -122 227 -111 149 -243 242 -412 291 -94 27 -287 35 -373 15z
m289 -11 c205 -36 369 -139 492 -310 40 -58 106 -182 116 -223 4 -15 22 -21
84 -31 228 -37 439 -171 572 -364 63 -92 83 -132 118 -237 26 -78 28 -97 28
-240 0 -132 -4 -165 -22 -220 -12 -36 -22 -68 -22 -71 0 -3 19 -14 43 -25 93
-40 182 -112 273 -219 292 -346 284 -856 -20 -1192 l-47 -52 30 -47 c70 -110
104 -286 89 -462 -8 -98 -59 -254 -109 -337 -125 -208 -338 -365 -554 -409
l-60 -13 -12 -89 c-50 -374 -282 -656 -633 -769 -166 -54 -410 -45 -577 22
-205 81 -383 243 -482 440 -64 127 -72 180 -78 479 l-6 271 234 6 c294 7 366
25 450 114 76 79 99 170 99 390 0 199 4 202 286 203 l198 2 14 -39 c29 -74 87
-139 154 -172 121 -60 224 -60 345 -1 70 35 118 85 160 168 25 51 28 68 28
152 0 85 -3 101 -29 155 -38 77 -120 159 -193 193 -49 23 -71 27 -148 27 -76
0 -99 -4 -146 -27 -31 -14 -74 -42 -96 -62 -44 -40 -98 -132 -108 -186 l-6
-35 -157 3 c-193 4 -281 -11 -358 -62 -63 -42 -98 -87 -126 -158 -17 -44 -22
-83 -25 -218 -4 -122 -9 -171 -20 -188 -29 -46 -64 -52 -318 -52 l-235 0 2
723 3 722 270 5 c253 5 273 6 311 27 151 81 229 210 235 389 l2 65 121 100
c71 58 127 98 136 95 8 -3 35 -12 60 -21 195 -71 397 35 456 239 45 161 -43
344 -204 423 -52 25 -67 28 -162 28 -98 0 -109 -2 -165 -32 -117 -60 -183
-161 -192 -289 -5 -61 6 -171 23 -225 3 -11 -14 -28 -53 -54 -80 -53 -144
-122 -186 -203 -34 -65 -44 -104 -62 -254 -3 -26 -14 -57 -25 -70 -18 -23 -20
-23 -294 -26 l-276 -3 0 918 c0 505 4 935 9 956 11 48 71 135 132 192 166 155
397 221 633 180z"/>
<path d="M4030 6434 c-53 -16 -117 -76 -130 -124 -41 -148 63 -284 205 -267
100 11 169 94 169 204 0 54 -5 69 -30 105 -52 74 -134 106 -214 82z m117 -15
c69 -26 113 -95 113 -179 0 -168 -188 -250 -302 -131 -90 95 -70 239 41 298
47 25 103 29 148 12z"/>
<path d="M6355 6422 c-16 -11 -38 -28 -47 -38 -49 -55 -62 -158 -29 -229 64
-139 251 -155 331 -29 56 89 35 219 -45 280 -32 24 -49 29 -109 32 -56 2 -77
-1 -101 -16z m162 -3 c97 -36 141 -169 91 -269 -56 -111 -190 -130 -279 -41
-115 115 -43 321 113 321 26 0 59 -5 75 -11z"/>
<path d="M1134 5251 c-53 -32 -68 -103 -34 -159 37 -60 51 -62 440 -62 386 0
405 3 434 59 28 54 21 98 -23 142 l-39 39 -373 0 c-350 0 -376 -1 -405 -19z
m786 -9 c26 -12 39 -28 50 -59 13 -38 12 -46 -3 -78 -31 -65 -43 -66 -441 -63
-392 3 -390 3 -423 73 -14 30 -15 38 -2 72 27 71 36 73 434 73 313 0 354 -2
385 -18z"/>
<path d="M8293 5256 c-57 -26 -81 -108 -47 -166 36 -60 37 -60 436 -60 345 0
365 1 396 20 69 42 79 130 21 186 l-30 29 -372 2 c-301 2 -378 0 -404 -11z
m796 -30 c56 -53 37 -142 -35 -172 -52 -22 -713 -20 -755 2 -57 29 -75 127
-31 167 37 34 66 36 429 34 l362 -2 30 -29z"/>
<path d="M6768 4616 c-59 -21 -85 -42 -114 -91 -23 -40 -26 -54 -22 -110 7
-110 75 -181 184 -192 109 -11 194 63 202 177 5 70 -9 118 -48 159 -57 59
-136 82 -202 57z m144 -27 c50 -25 87 -83 95 -146 17 -151 -118 -255 -252
-194 -150 68 -151 277 -2 347 58 27 95 26 159 -7z"/>
<path d="M3055 2731 c-32 -20 -424 -410 -451 -449 -21 -31 -21 -104 0 -137 36
-55 109 -79 171 -55 23 9 368 352 438 436 66 78 60 164 -13 208 -38 22 -108
20 -145 -3z m135 -6 c31 -16 60 -61 60 -93 0 -10 -10 -37 -22 -60 -27 -48
-411 -448 -450 -468 -79 -41 -178 21 -178 111 0 34 7 51 34 84 57 68 419 423
441 431 32 14 84 11 115 -5z"/>
<path d="M7055 2740 c-11 -4 -31 -20 -45 -35 -21 -22 -25 -36 -24 -82 l0 -55
245 -244 246 -244 47 0 c58 0 101 21 126 63 25 41 25 93 0 135 -27 44 -435
444 -468 459 -31 14 -98 16 -127 3z m118 -14 c18 -8 132 -112 254 -233 187
-184 223 -224 228 -254 17 -94 -80 -175 -167 -141 -9 4 -123 112 -253 240
-241 239 -241 239 -237 311 1 26 36 69 67 81 31 13 72 11 108 -4z"/>
<path d="M5053 2191 c-62 -39 -63 -47 -63 -391 0 -258 3 -316 15 -340 41 -79
178 -81 231 -3 17 26 19 53 22 323 2 186 0 308 -7 330 -25 84 -127 126 -198
81z m122 -5 c63 -27 65 -39 65 -390 l0 -316 -28 -31 c-54 -60 -175 -44 -202
27 -6 14 -10 156 -10 328 0 299 0 304 23 337 38 57 87 72 152 45z"/>
</g>
</svg>
