<svg version="1.1" id="Layer_1" xmlns="http://www.w3.org/2000/svg" xmlns:xlink="http://www.w3.org/1999/xlink" x="0px" y="0px"
	 width="100%" viewBox="0 0 1024 1024" enable-background="new 0 0 1024 1024" xml:space="preserve">
<path fill="#000000" opacity="1.000000" stroke="none" 
	d="
M471.732269,105.720184 
	C490.069000,90.101456 510.552704,85.310020 532.964661,93.379929 
	C555.667236,101.554474 568.943176,118.619293 571.994019,142.284729 
	C575.644226,170.599152 561.046082,194.951950 534.408325,205.444031 
	C532.195496,206.315643 528.975037,206.384033 528.634827,209.479111 
	C528.201538,213.420609 527.797485,217.488937 528.923645,221.377319 
	C529.397400,223.013138 531.416809,222.790909 532.839722,223.086044 
	C538.895081,224.341980 545.086060,223.856110 551.217773,224.477524 
	C581.521667,227.548645 610.872803,234.409317 639.228760,245.462601 
	C712.831970,274.153412 769.608643,322.862457 810.335449,390.310059 
	C831.817688,425.886993 845.389221,464.461670 852.473022,505.428558 
	C856.947998,531.308411 858.528015,557.368469 857.079407,583.468628 
	C854.486938,630.177551 842.886047,674.770630 821.958008,716.665649 
	C779.805115,801.049622 714.197083,859.447632 625.660950,891.880371 
	C601.855408,900.600769 577.123169,905.593689 551.891663,908.529114 
	C532.438904,910.792114 512.932251,911.290405 493.543915,910.123352 
	C431.834686,906.408630 374.614532,888.317383 323.281769,853.376953 
	C250.982773,804.165527 203.164322,737.238831 180.053284,652.862671 
	C174.518936,632.657349 171.097656,612.030457 169.553802,591.064392 
	C164.727417,525.519348 177.522659,463.489777 207.474350,405.230225 
	C233.489380,354.627930 270.710175,313.610809 317.799652,281.593018 
	C358.602478,253.849808 403.299683,235.859894 451.941467,227.525330 
	C465.394714,225.220169 478.947876,224.060638 492.514648,222.950836 
	C496.029633,222.663315 497.156097,221.120804 496.875580,217.858673 
	C496.704742,215.871643 496.688293,213.854446 496.808716,211.863281 
	C496.986816,208.918045 495.753906,207.283142 492.913605,206.374374 
	C450.143768,192.689713 439.064484,136.662888 471.732269,105.720184 
M273.268219,790.234802 
	C291.987671,810.084534 312.736206,827.491760 335.626801,842.367615 
	C384.766083,874.301453 438.799805,891.272583 497.109802,894.496582 
	C519.874573,895.755249 542.634827,894.482056 565.257080,890.839355 
	C617.938965,882.356384 665.395081,861.697449 708.113892,830.016357 
	C747.106873,801.098389 778.164673,765.225342 801.304077,722.486328 
	C826.136414,676.620483 839.439636,627.583069 841.550842,575.571594 
	C842.551575,550.920837 840.489502,526.394836 835.775635,502.136688 
	C821.181885,427.035461 784.431030,364.693359 726.224976,315.416656 
	C669.147339,267.095215 602.541321,241.995972 527.934509,238.487274 
	C499.104889,237.131424 470.409576,239.216034 442.124634,245.415039 
	C359.772491,263.463531 293.826385,306.958069 244.521332,374.996429 
	C207.663330,425.858521 188.612396,483.595306 184.537643,546.076904 
	C182.373352,579.263672 185.577972,612.158508 193.974564,644.501465 
	C208.242844,699.461670 234.756226,747.694458 273.268219,790.234802 
M485.243256,115.724152 
	C460.004120,137.140564 464.854706,170.405869 488.399689,185.976151 
	C493.985199,189.669846 494.594269,189.344147 495.800049,183.038330 
	C497.528137,174.000916 504.324463,168.477020 513.463562,168.681763 
	C522.300049,168.879745 528.158936,174.463821 529.618652,183.904007 
	C529.864136,185.491531 529.544067,187.265228 530.669861,188.635300 
	C532.008545,189.117081 533.020264,188.366226 533.987366,187.800079 
	C547.390320,179.953827 555.665527,168.437607 556.521484,152.847015 
	C557.550110,134.112167 548.989319,119.942291 532.644226,111.132019 
	C516.403931,102.378189 500.590851,104.522331 485.243256,115.724152 
z"/>
<path fill="#000000" opacity="1.000000" stroke="none" 
	d="
M337.469299,807.562927 
	C304.581573,783.068481 277.471436,753.737549 256.602295,718.833374 
	C238.223999,688.095093 226.146942,654.928223 219.691315,619.700989 
	C215.598907,597.369507 213.641220,574.839478 214.825195,552.188110 
	C218.702911,478.000244 245.113693,413.306610 297.135010,359.671387 
	C337.830811,317.713043 386.491364,289.632904 443.487030,276.203125 
	C472.366974,269.398224 501.728058,267.101837 531.210205,268.914948 
	C578.552856,271.826447 623.302002,284.397797 664.330994,308.660095 
	C722.152649,342.852661 764.258789,390.863495 790.088379,453.004425 
	C799.724487,476.186951 806.033020,500.281952 809.060242,525.144592 
	C812.022827,549.476013 812.286804,573.854919 809.542664,598.323730 
	C805.739746,632.232422 797.193298,664.797729 781.716248,695.139587 
	C737.108765,782.589844 667.600891,838.517761 570.873352,858.939636 
	C547.365662,863.902771 523.380920,865.337280 499.371521,864.173523 
	C439.986420,861.295166 385.924194,842.924194 337.469299,807.562927 
M409.942230,829.464478 
	C439.032379,840.652588 469.076111,847.072693 500.302826,847.821106 
	C504.473267,847.921021 505.774963,846.601562 505.734955,842.459229 
	C505.558044,824.143311 505.662903,805.824707 505.656921,787.507080 
	C505.654114,778.841736 505.470032,778.712097 496.740967,778.356934 
	C480.564880,777.698853 464.748718,774.787170 449.225372,770.324158 
	C417.002655,761.060059 388.614197,744.807922 363.519073,722.713623 
	C360.746887,720.272888 358.356842,719.459351 354.620789,720.674194 
	C338.654785,725.866028 322.450958,730.253601 306.118011,734.166199 
	C300.867615,735.423889 295.237549,735.484619 289.808929,739.008667 
	C321.667145,780.006775 361.340485,809.973022 409.942230,829.464478 
M586.471619,535.926697 
	C587.714355,536.405762 588.992859,536.809204 590.193542,537.377258 
	C594.951294,539.628296 598.960938,539.121643 603.425659,535.804260 
	C613.444275,528.360413 623.964233,521.593323 634.232910,514.482544 
	C636.340820,513.022827 639.098633,512.217773 640.232849,508.968628 
	C631.605042,503.112579 622.957825,497.261658 614.334961,491.375031 
	C612.628601,490.210083 611.526978,491.434479 610.334106,492.242798 
	C603.166260,497.099670 595.983215,501.935394 588.874878,506.878326 
	C585.499634,509.225372 582.085083,510.558319 578.273132,508.089447 
	C574.409241,505.586975 574.252991,502.008026 575.375793,497.941345 
	C577.631165,489.772705 579.479248,481.484528 581.959778,473.387970 
	C583.258118,469.150360 582.228638,466.665527 578.682983,464.173187 
	C571.467651,459.101288 564.468140,453.707031 557.568604,448.208557 
	C554.731873,445.947876 552.987000,442.823639 554.265808,438.929871 
	C555.557983,434.995575 558.812195,434.166412 562.474854,433.591797 
	C570.934204,432.264740 579.439758,432.599945 587.909119,432.819519 
	C592.847473,432.947510 595.453857,431.505463 596.888672,426.567108 
	C599.206787,418.588837 602.259460,410.824402 604.987366,402.964600 
	C606.374878,398.966797 608.892090,396.437286 613.367432,396.385529 
	C617.788269,396.334412 619.904114,399.033722 621.153748,402.836761 
	C623.853760,411.053802 626.856934,419.184021 629.195435,427.501740 
	C630.381470,431.720276 632.501221,432.850952 636.629944,432.795593 
	C645.113770,432.681885 653.619263,432.350372 662.095520,433.240692 
	C666.028259,433.653748 669.174683,435.076019 670.473450,439.167419 
	C671.808105,443.372192 669.545410,446.293732 666.713928,448.742035 
	C662.685486,452.225342 658.430237,455.448181 654.242798,458.745483 
	C643.467285,467.230560 643.460388,467.222595 647.108826,480.292114 
	C647.466003,481.571533 647.781311,482.865753 648.206177,484.122650 
	C649.990417,489.401123 650.535278,495.101929 653.090271,499.954102 
	C655.641968,500.073730 656.935181,498.619690 658.346985,497.535400 
	C668.384644,489.826355 678.246094,481.879028 688.454712,474.405151 
	C693.172974,470.950836 694.899048,466.684723 694.666626,461.157623 
	C693.867615,442.156738 688.337341,424.770294 676.273254,409.919037 
	C659.671814,389.482086 638.478943,377.418457 611.690063,377.402771 
	C585.858887,377.387665 565.027527,388.634552 549.035034,408.456329 
	C534.326050,426.687378 527.980469,447.897705 532.013489,471.086731 
	C537.493286,502.594086 556.820679,523.300598 586.471619,535.926697 
M602.781433,760.414551 
	C578.407837,770.823914 553.069641,777.140503 526.534119,778.352478 
	C523.272705,778.501404 520.416260,779.117493 520.413757,783.229553 
	C520.401550,803.379700 520.417847,823.529907 520.432495,843.680054 
	C520.434570,846.545593 521.776245,847.949646 524.763550,847.791931 
	C530.566956,847.485596 536.359131,847.421021 542.177429,846.878418 
	C567.502441,844.516907 591.991455,838.831421 615.661743,829.579224 
	C647.317505,817.205627 675.787598,799.695862 700.917542,776.760254 
	C703.682800,774.236450 704.349182,772.372742 701.412842,769.468384 
	C688.034790,756.236206 674.755493,742.903076 661.540955,729.507446 
	C658.928894,726.859558 657.025635,726.758606 654.026672,729.205383 
	C638.597961,741.792908 621.747314,752.130493 602.781433,760.414551 
M728.228577,748.736206 
	C749.445923,723.550781 766.013062,695.629700 777.705200,664.821899 
	C787.986084,637.732544 793.667114,609.673340 795.611633,580.813049 
	C796.165771,572.589172 795.851135,572.235107 787.791504,572.229675 
	C772.635498,572.219421 757.478821,572.312378 742.324036,572.180359 
	C738.331909,572.145630 736.590332,573.686401 736.324768,577.651672 
	C735.713562,586.778381 733.993591,595.760864 731.838867,604.624146 
	C722.243469,644.093994 703.617432,678.786377 676.092712,708.640625 
	C673.382141,711.580627 673.599670,713.314026 676.284241,715.950073 
	C687.687012,727.147034 698.897522,738.539490 710.233887,749.804504 
	C719.321472,758.834961 719.357056,758.799133 728.228577,748.736206 
M679.500732,389.992249 
	C697.283875,407.311768 706.881226,428.712463 710.003662,452.932953 
	C712.781433,452.970306 713.830200,451.515656 714.985596,450.406036 
	C725.802002,440.018127 736.011536,429.052612 746.135315,417.991180 
	C749.709656,414.085876 749.872681,411.203033 746.829102,406.818451 
	C729.009094,381.147064 707.984314,358.570404 682.771301,340.079102 
	C636.147278,305.884918 583.747864,287.744843 526.118103,284.404907 
	C522.041992,284.168701 520.338318,286.059814 520.357666,290.019470 
	C520.409790,300.679840 520.477112,311.342010 520.329407,322.000549 
	C520.271912,326.146606 522.156250,327.709991 526.046631,327.668060 
	C530.368530,327.621460 534.646667,328.040619 538.960144,328.514374 
	C564.679504,331.338959 589.053650,338.563965 612.334473,349.795319 
	C623.151306,355.013702 632.910034,362.207397 643.859314,367.011993 
	C656.825134,372.701385 668.756897,379.689758 679.500732,389.992249 
M364.823059,406.924896 
	C365.913605,408.176392 366.941681,409.489441 368.104156,410.670135 
	C383.882874,426.695404 399.804932,442.582520 415.380829,458.802216 
	C419.040527,462.613251 420.986481,462.042542 424.490295,458.681763 
	C445.889771,438.156006 471.059448,425.146149 500.769379,421.678436 
	C504.251709,421.271973 505.704620,419.767548 505.692413,416.227295 
	C505.614197,393.570007 505.605072,370.912140 505.694092,348.254974 
	C505.708405,344.607086 504.399414,343.049561 500.695007,343.360535 
	C492.089844,344.082855 483.483887,344.769592 474.982483,346.361664 
	C434.314178,353.977692 398.777924,371.706757 368.828094,400.368469 
	C367.088928,402.032837 364.901459,403.551971 364.823059,406.924896 
M672.810181,688.320618 
	C673.239197,687.810913 673.684998,687.314392 674.094727,686.789673 
	C698.978149,654.924316 715.050232,619.258423 720.561646,579.038635 
	C721.321899,573.490845 720.312500,572.272034 714.444458,572.257690 
	C695.791687,572.212097 677.119751,572.744629 658.493530,572.039978 
	C648.797119,571.673218 642.933899,577.737976 635.954834,582.232300 
	C635.119995,582.769897 634.680542,584.151428 634.364990,585.231567 
	C628.564697,605.087646 618.719299,622.624878 604.310852,637.508667 
	C602.181702,639.708130 602.311279,641.419739 604.301575,643.436768 
	C607.927429,647.111267 611.470459,650.867920 615.112854,654.525696 
	C629.449219,668.922729 643.866699,683.239685 658.112671,697.725403 
	C660.743896,700.400940 662.576477,700.553284 664.900452,697.605530 
	C667.269043,694.601013 669.864136,691.775085 672.810181,688.320618 
M583.375610,750.788025 
	C604.101013,743.080688 623.440796,732.849365 640.907593,719.205872 
	C646.236633,715.043274 646.317139,714.821289 641.722839,710.211487 
	C624.213135,692.642700 606.614868,675.161987 589.164917,657.534180 
	C586.492737,654.834778 584.565369,654.441711 581.162354,656.664062 
	C564.347290,667.644958 546.086731,674.858826 525.862854,676.339661 
	C521.649170,676.648254 520.273010,678.629822 520.296692,682.781677 
	C520.435303,707.087036 520.349426,731.393616 520.366882,755.699768 
	C520.371948,762.740234 521.046814,763.346619 528.221191,762.601624 
	C546.766663,760.675781 565.058105,757.525818 583.375610,750.788025 
M401.213135,306.749268 
	C399.240845,307.641388 397.266357,308.528717 395.296600,309.426361 
	C368.877869,321.465546 344.837616,337.127716 323.371765,356.699127 
	C318.699280,360.959259 318.704895,361.192413 323.114716,365.624115 
	C331.221069,373.770569 339.542267,381.714142 347.393921,390.098175 
	C350.912323,393.855103 352.982758,393.546051 356.529663,390.042358 
	C383.900482,363.004639 416.514435,344.964905 453.479645,334.730316 
	C468.230164,330.646301 483.247131,327.946075 498.630829,327.587433 
	C505.011169,327.438690 505.645386,326.559021 505.653107,320.144104 
	C505.665344,309.982880 505.488922,299.817657 505.733765,289.662323 
	C505.836639,285.393555 504.202942,283.941101 500.165924,284.334564 
	C492.066193,285.123962 483.920471,285.532043 475.856354,286.579620 
	C450.335571,289.894928 425.646271,296.412201 401.213135,306.749268 
M391.027649,691.431885 
	C419.339050,680.157837 447.350891,668.211914 474.659241,654.647522 
	C497.327332,643.388000 520.007629,632.160522 542.103577,619.795044 
	C547.609192,616.713928 547.727051,616.250305 543.199524,611.662476 
	C539.923218,608.342590 536.367310,605.262756 533.381226,601.702454 
	C530.416504,598.167664 527.766113,598.351624 523.965088,600.447144 
	C502.673157,612.185608 481.031891,623.260681 459.112488,633.786926 
	C422.914154,651.170166 386.031799,666.872620 347.785065,679.245178 
	C322.282593,687.494995 296.427765,694.361755 270.035614,699.095520 
	C265.839935,699.848145 265.031616,701.457458 267.039917,705.177551 
	C269.895081,710.466431 273.113495,715.510620 276.412354,720.520142 
	C277.969696,722.885132 279.709106,723.568054 282.694824,723.028137 
	C319.664978,716.342834 355.309753,705.163025 391.027649,691.431885 
M395.276093,727.209656 
	C414.739349,740.423340 435.752136,750.246338 458.545715,756.201416 
	C472.260284,759.784485 486.199829,761.875061 500.342255,762.649475 
	C503.462585,762.820374 505.742401,762.352112 505.719574,758.150940 
	C505.580048,732.485413 505.623718,706.818787 505.686432,681.152649 
	C505.693909,678.087463 504.655823,676.510864 501.443359,676.337280 
	C494.435303,675.958496 487.634216,674.325317 480.921509,672.402222 
	C478.032776,671.574646 475.590759,671.844482 472.830200,673.131104 
	C443.535858,686.784241 413.867401,699.562195 383.549530,710.797058 
	C381.891693,711.411316 379.982635,711.791931 378.965729,714.137024 
	C383.401917,719.222168 389.310577,722.692688 395.276093,727.209656 
M327.500427,572.339417 
	C321.504852,572.350281 315.509186,572.346313 309.513733,572.377869 
	C306.173431,572.395447 304.042419,573.568176 304.530212,577.459229 
	C308.324921,607.727356 317.534058,636.109009 333.631439,662.169312 
	C335.751282,665.601135 337.782562,666.500366 341.725586,665.249207 
	C366.019012,657.540588 389.670929,648.173828 413.060913,638.113647 
	C414.947021,637.302490 417.275146,636.892334 418.417725,634.322815 
	C417.367859,632.960144 416.295959,631.501404 415.155273,630.098694 
	C402.644989,614.715149 394.349609,597.237366 389.899628,578.000977 
	C388.911224,573.728271 387.280487,572.220337 382.960846,572.262634 
	C364.808807,572.440613 346.654022,572.338501 327.500427,572.339417 
M760.744385,429.341614 
	C757.965637,426.434937 756.972107,429.758240 755.845581,431.010681 
	C739.334656,449.368286 721.697205,466.564117 702.820496,482.468658 
	C662.065308,516.806885 617.619141,545.841370 572.021301,573.206238 
	C564.510437,577.713745 556.951050,582.140381 548.011414,587.435120 
	C553.487793,592.528259 558.454956,596.676697 562.830017,601.376465 
	C565.937012,604.713989 568.480225,604.859924 572.278809,602.599548 
	C618.384277,575.164001 663.616028,546.412109 706.268616,513.782776 
	C728.508789,496.768951 749.803711,478.655182 769.373108,458.560516 
	C772.405212,455.447083 773.101685,452.780640 770.958313,448.927765 
	C767.482727,442.679993 764.382385,436.223511 760.744385,429.341614 
M234.632248,614.927490 
	C238.893555,637.216125 245.144897,658.883423 254.299667,679.704651 
	C256.207764,684.044434 258.833862,685.270386 263.237976,684.533508 
	C280.292114,681.679871 297.188049,678.116638 313.865997,673.553711 
	C315.711975,673.048584 317.877777,673.000061 319.144470,671.158691 
	C319.337952,669.482971 318.384247,668.235107 317.660370,666.967346 
	C301.934387,639.426147 292.512024,609.802856 288.944489,578.368225 
	C288.376312,573.361633 286.383087,572.272522 282.067078,572.306030 
	C267.241974,572.421326 252.415421,572.327454 237.589828,572.397278 
	C230.752625,572.429443 229.823532,573.800354 230.511185,580.466675 
	C231.669083,591.691711 232.582748,602.941467 234.632248,614.927490 
M408.658691,475.613403 
	C408.514893,474.167633 407.510956,473.245026 406.583160,472.305054 
	C389.636475,455.135101 372.684967,437.969849 355.712158,420.825714 
	C354.694763,419.798126 353.741638,418.493713 351.427734,418.812378 
	C337.311646,435.638245 326.361633,454.686462 318.629425,475.616730 
	C317.554657,478.525970 319.565369,479.796844 321.631927,481.101715 
	C333.725616,488.737823 345.727234,496.521729 357.887634,504.049469 
	C368.033661,510.330170 377.878998,517.135803 389.292969,522.928833 
	C392.987701,505.920471 399.833130,490.703766 408.658691,475.613403 
M230.498398,551.597168 
	C229.760178,555.714478 231.805664,556.768127 235.570999,556.735840 
	C251.043915,556.603088 266.521271,556.489258 281.990662,556.747986 
	C286.782593,556.828064 287.787506,554.949097 287.937073,550.612549 
	C288.642273,530.165710 290.946564,509.901642 296.764771,490.208496 
	C297.945038,486.213531 296.864380,484.170868 293.509705,482.115082 
	C281.882751,474.989899 270.443878,467.558441 258.856842,460.366943 
	C256.688263,459.021027 254.930725,456.790894 251.929291,456.450836 
	C251.271667,457.796173 250.622284,458.939575 250.135727,460.148499 
	C244.730606,473.577545 240.461716,487.360718 237.307770,501.489746 
	C233.685425,517.717102 231.577896,534.149292 230.498398,551.597168 
M500.878510,595.272217 
	C506.231140,592.413757 511.867950,590.022888 516.842712,586.296997 
	C513.930237,580.088806 507.156342,577.523010 504.962982,571.110168 
	C508.445251,569.707886 512.274414,569.888733 512.846985,565.041443 
	C513.438354,560.035461 509.138123,560.493225 506.789642,558.795654 
	C510.696747,553.892822 516.249573,553.609619 521.062866,558.168701 
	C525.044983,561.940552 528.717896,566.038269 532.540222,569.979553 
	C537.639526,575.237610 537.651062,575.243896 544.159363,571.540710 
	C547.484558,569.648682 550.709167,567.564392 554.116272,565.837341 
	C556.587646,564.584534 557.136597,563.038391 556.842957,560.277283 
	C554.641785,539.582520 533.844788,517.604248 506.078430,522.276978 
	C488.460388,525.241821 476.198364,535.164612 470.572113,552.071472 
	C465.008759,568.789429 469.598907,583.501526 481.884094,595.879944 
	C487.899200,601.940674 487.968964,601.872253 495.777466,597.893982 
	C497.259644,597.138855 498.738220,596.376648 500.878510,595.272217 
M328.097717,393.422424 
	C322.175598,387.579437 316.156342,381.830322 310.377258,375.849121 
	C307.922058,373.308136 306.249115,373.455841 303.894165,375.965149 
	C286.584198,394.409790 272.328369,414.980743 260.600128,437.358246 
	C259.187927,440.052765 260.004578,441.539062 262.307922,443.078400 
	C274.617340,451.304657 286.968750,459.458740 299.632538,467.138489 
	C302.527954,468.894379 303.990906,468.388184 305.261169,465.311310 
	C313.632172,445.035309 324.696259,426.338989 338.608948,409.368347 
	C340.548096,407.003021 340.128082,405.384705 338.108185,403.458588 
	C334.859436,400.360596 331.772217,397.093170 328.097717,393.422424 
M505.659698,484.499817 
	C505.656586,470.343750 505.574371,456.186981 505.702850,442.032135 
	C505.737366,438.230133 504.361633,436.924652 500.626740,437.545319 
	C475.398712,441.737549 453.634888,452.682892 435.307159,470.563538 
	C432.582275,473.221924 432.257111,475.050995 435.063141,477.860291 
	C447.419434,490.231262 459.652985,502.725830 471.835632,515.268311 
	C473.947266,517.442322 475.631134,517.806274 478.239716,516.005798 
	C485.310272,511.125427 493.118378,507.870514 501.664337,506.631805 
	C504.803131,506.176819 505.767975,504.463654 505.692169,501.486755 
	C505.556580,496.160889 505.657013,490.829041 505.659698,484.499817 
M755.502197,555.772400 
	C766.815063,555.760376 778.128479,555.680786 789.440491,555.772705 
	C793.442139,555.805237 795.146057,554.270508 795.006104,550.131531 
	C794.164978,525.253906 789.856750,501.006104 782.088684,477.369476 
	C781.489990,475.547729 781.175842,473.421539 779.040771,472.671783 
	C778.739868,472.720184 778.529114,472.689026 778.425598,472.779938 
	C763.810303,485.608215 749.904846,499.233856 734.848206,511.566803 
	C733.197693,512.918823 733.207703,514.691284 733.571594,516.578674 
	C735.773315,527.997498 737.377075,539.492859 737.288879,551.145752 
	C737.262390,554.642700 738.656189,555.919312 742.027161,555.802368 
	C746.181274,555.658203 750.344238,555.769470 755.502197,555.772400 
M385.878906,541.056396 
	C362.697083,526.352539 339.497467,511.676575 316.349884,496.919006 
	C312.219543,494.285706 311.203918,496.762238 310.313110,500.073608 
	C305.755585,517.015259 304.402618,534.375305 303.427399,551.793579 
	C303.241302,555.117493 304.357239,556.705078 307.916656,556.695557 
	C332.720612,556.629395 357.524811,556.655945 382.328918,556.687744 
	C385.129974,556.691345 386.805084,555.744934 386.673401,552.649109 
	C386.518280,549.002563 386.441620,545.352661 385.878906,541.056396 
M460.483704,535.157471 
	C463.713257,531.415588 462.946777,528.626648 459.366791,525.168823 
	C447.871490,514.065796 436.803131,502.521393 425.518982,491.198212 
	C424.288086,489.963074 423.347870,488.173676 421.052032,488.076569 
	C420.665009,488.507141 420.156952,488.938629 419.812347,489.475098 
	C407.355377,508.868500 402.144836,530.138855 403.302429,553.076782 
	C403.430023,555.605347 404.592194,556.656738 407.034454,556.647339 
	C421.355682,556.592346 435.677002,556.532654 449.998230,556.551819 
	C452.514893,556.555176 453.362457,555.469727 453.797455,553.050842 
	C454.893036,546.958679 457.186310,541.239441 460.483704,535.157471 
M520.345154,360.503662 
	C520.356750,378.634583 520.355591,396.765503 520.400024,414.896332 
	C520.404419,416.674255 520.130493,418.989807 522.440247,419.438599 
	C524.462646,419.831512 524.956238,417.662506 525.757324,416.263641 
	C526.169922,415.543152 526.491394,414.771088 526.888245,414.040955 
	C538.977905,391.796448 556.770752,376.083435 580.591187,367.362305 
	C585.936035,365.405457 591.418213,363.823669 596.829224,362.071716 
	C596.221130,360.169586 595.090515,359.757294 594.044312,359.281097 
	C587.528870,356.315887 580.731628,354.126038 573.921753,351.964874 
	C558.657776,347.120819 542.932922,344.771301 527.042236,343.429199 
	C520.903625,342.910797 520.449524,343.511292 520.379700,349.526367 
	C520.341064,352.852753 520.355469,356.179718 520.345154,360.503662 
M411.102417,572.318726 
	C407.086334,572.111450 405.128082,573.511230 406.411011,577.892029 
	C411.533234,595.383240 419.711853,611.186096 431.794220,624.937988 
	C434.071960,627.530457 436.120697,627.902405 439.141602,626.405029 
	C448.678802,621.677856 458.323822,617.168701 467.893433,612.505920 
	C469.167816,611.884949 470.798950,611.531494 471.301453,609.628052 
	C471.041138,609.154480 470.837708,608.479553 470.400513,608.033997 
	C461.551544,599.016846 455.482971,588.533997 453.362274,575.947571 
	C452.838043,572.836426 450.804901,572.195801 447.933685,572.224915 
	C435.950684,572.346436 423.965973,572.296326 411.102417,572.318726 
M607.271790,441.619995 
	C605.969788,446.235626 602.835632,447.884094 598.204102,447.499023 
	C595.390381,447.265106 592.542969,447.388153 589.711853,447.430573 
	C588.081543,447.455017 586.280579,447.287201 585.538635,449.685059 
	C587.314209,452.423615 590.262268,454.063477 592.825684,456.097046 
	C599.919861,461.724762 600.157349,462.646057 597.786072,471.339539 
	C596.774597,475.047913 594.973389,478.689484 595.805420,483.628113 
	C600.196594,480.849854 604.162231,478.503540 607.950928,475.899811 
	C612.060181,473.075775 615.803589,473.160309 619.885620,476.102753 
	C623.039001,478.375732 625.989563,481.147675 630.143921,482.355957 
	C631.655518,478.257751 629.529297,474.972351 628.562195,471.622650 
	C625.915771,462.456604 626.170227,461.604187 633.678955,455.591736 
	C636.401611,453.411652 639.809631,451.846222 641.571106,448.155823 
	C637.102905,446.813995 632.974243,447.460938 628.860107,447.710754 
	C622.133362,448.119293 620.392822,446.892365 618.010193,440.679565 
	C616.509888,436.767273 615.847900,432.444427 612.854065,428.760132 
	C609.856628,432.605072 609.369934,437.051178 607.271790,441.619995 
M565.911682,634.585510 
	C564.378479,633.056335 562.848572,631.523804 561.311035,629.999023 
	C560.309753,629.006104 559.279785,628.338745 557.781372,629.154114 
	C546.079651,635.522217 534.257507,641.678650 522.704285,648.304626 
	C518.572144,650.674500 520.015808,655.354309 520.881287,658.813354 
	C521.667480,661.955200 525.057312,660.592468 527.401672,660.301819 
	C534.344604,659.441040 541.202087,658.086731 547.757935,655.590393 
	C556.439758,652.284485 564.961243,648.633667 572.318726,642.843628 
	C571.279053,639.174500 568.327209,637.532959 565.911682,634.585510 
M713.097107,528.679199 
	C701.305603,537.228027 689.514099,545.776794 677.122253,554.760803 
	C678.595947,555.317505 679.175354,555.725769 679.756531,555.728149 
	C692.585388,555.781494 705.414490,555.770752 718.243408,555.820862 
	C721.306030,555.832825 721.638123,553.947937 721.689026,551.523315 
	C721.825806,545.009460 720.935913,538.581848 720.017639,532.175781 
	C719.713501,530.054016 720.426880,527.379395 717.656006,525.622620 
	C716.377502,526.463501 715.017151,527.358276 713.097107,528.679199 
M584.684692,613.204651 
	C583.009460,614.496277 580.739197,615.041504 579.682861,617.082703 
	C586.263550,629.692017 590.782410,630.281494 599.072632,619.642944 
	C600.709656,617.542175 602.279236,615.381104 603.759827,613.167603 
	C606.859558,608.533691 609.974976,603.893921 610.748352,597.571960 
	C602.262085,602.652710 593.775818,607.733459 584.684692,613.204651 
M575.672974,552.955139 
	C577.653992,551.903076 579.837708,551.114380 581.431824,548.694763 
	C577.461792,546.631226 574.039551,544.254761 569.403076,543.244751 
	C569.931824,545.513550 570.172791,547.320435 570.788269,548.989258 
	C571.523132,550.981812 571.500916,553.955444 575.672974,552.955139 
M520.562622,496.326660 
	C520.593994,498.150604 520.729126,499.979797 520.636841,501.797455 
	C520.377991,506.893463 523.191895,507.117615 527.315918,506.067200 
	C526.138123,500.924622 523.363525,496.855286 520.670349,491.302643 
	C520.670349,493.699921 520.670349,494.685028 520.562622,496.326660 
z"/>
</svg>